<?xml version="1.0" encoding="UTF-8" standalone="no"?>
<!DOCTYPE svg PUBLIC "-//W3C//DTD SVG 1.1//EN" "http://www.w3.org/Graphics/SVG/1.1/DTD/svg11.dtd">
<svg width="100%" height="100%" viewBox="0 0 942 767" version="1.1" xmlns="http://www.w3.org/2000/svg" xmlns:xlink="http://www.w3.org/1999/xlink" xml:space="preserve" xmlns:serif="http://www.serif.com/" style="fill-rule:evenodd;clip-rule:evenodd;stroke-linejoin:round;stroke-miterlimit:2;">
    <g transform="matrix(0.788589,0,0,1.00155,137.995,12.8181)">
        <path d="M292.4,33.03C315.12,32.05 338.05,35.83 359.21,44.17C403.49,61.64 439.32,99.25 454.47,144.4C462.3,167.67 464.52,192.68 461.78,217.04C457.67,251.03 442.47,283.61 418.95,308.51C411.7,316.99 402.88,323.94 393.98,330.6C380.5,340.6 365.03,347.44 349.33,353.14C316.59,363.63 280.59,363.48 247.87,352.98C227.13,345.69 207.39,335.12 190.99,320.36C171.53,303.75 156.64,282.13 146.69,258.64C130.08,217.41 130.82,169.35 149.46,128.92C166.95,90.29 200.06,59.16 239.57,43.84C256.39,37.28 274.34,33.48 292.4,33.03M627.08,199.02C646.66,194.89 667.37,197 685.94,204.37C712.76,215.31 734.26,238.08 744.17,265.24C748.03,276.26 749.87,287.94 750.21,299.58C750.85,307.68 745.57,315.85 737.94,318.62C732.21,320.72 726,319.85 720.03,320.01C714.46,319.88 708.75,320.58 703.33,318.98C697.5,317.32 692.51,312.9 690.25,307.27C687.87,300.51 689.22,293.02 686.42,286.35C683.04,275.26 674.23,266.3 663.63,261.87C653.5,257.36 641.52,257.66 631.4,262C616.48,268.34 606.71,284.51 606.81,300.57C606.63,334.38 606.86,368.2 606.71,402.02C665.47,401.99 724.24,402.02 783.01,402C789.04,401.91 795.15,402 801.05,403.39C810.35,405.59 818.99,411.08 824.46,418.98C830.36,426.45 832.38,436.14 832.49,445.47C832.48,512.49 832.52,579.51 832.48,646.54C832.32,656.51 829.62,666.82 822.9,674.45C817.36,681.27 809.34,685.78 800.95,688.1C795.05,689.46 788.96,689.24 782.96,689.26L512.09,689.26C506.23,689.26 500.29,689.41 494.53,688.14C481.64,684.85 470.19,675.28 465.7,662.62C462.68,655.31 462.96,647.26 462.95,639.51C463,579.15 463,518.8 462.96,458.44C463.06,450.63 462.55,442.76 463.81,435.01C465.99,424.97 471.78,415.57 480.34,409.76C487.92,403.98 497.63,402.06 506.98,401.99C519.64,402.01 532.3,402 544.96,402C544.92,374.83 545.05,347.65 544.99,320.48C544.99,309.14 544.55,297.76 546.13,286.5C548.82,264.36 559,243.08 574.88,227.39C588.99,213.07 607.37,203.03 627.08,199.02M639.21,505.72C627.44,508.3 616.9,516.1 611.48,526.92C606.93,535.36 605.86,545.39 607.79,554.72C610.63,566.61 618.69,577.48 629.97,582.54C638.32,586.71 648.08,587.63 657.15,585.6C669.03,582.7 679.68,574.44 684.71,563.19C689.68,552.89 689.94,540.44 685.42,529.93C678.5,512.09 657.78,501.53 639.21,505.72M392.43,402.13C398.97,401.8 405.54,402.09 412.1,402.02C419.04,402.03 425.88,403.36 432.78,403.87C428.37,411.53 425.07,419.88 423.55,428.61C421.59,438.12 422.1,447.87 422.04,457.52C422,516.51 422,575.51 422.04,634.5C422.08,641.82 421.82,649.17 422.55,656.47C423.82,668.04 427.58,679.29 433.55,689.29C313.35,689.22 193.15,689.3 72.95,689.25C57.27,689.29 41.61,683.07 30.5,671.95C22.28,664.56 16.95,654.51 13.7,644.07C10.74,632.82 11.64,621.07 11.5,609.56C11.74,583.54 10.05,556.98 17.09,531.62C22.01,511.95 30.97,493.42 42.09,476.53C55.02,458.06 71.46,442.14 90.28,429.75C114.09,414.42 141.69,404.87 169.97,402.78C178.65,402.22 187.34,401.82 196.05,402.01C200.14,402.21 204.54,401.19 208.33,403.22C260.7,426.91 322.42,428.85 376.21,408.65C381.77,406.85 386.87,403.86 392.43,402.13" style="fill:rgb(86,118,97);fill-rule:nonzero;"/>
    </g>
</svg>
