<?xml version="1.0" encoding="UTF-8" standalone="no"?>
<!DOCTYPE svg PUBLIC "-//W3C//DTD SVG 1.1//EN" "http://www.w3.org/Graphics/SVG/1.1/DTD/svg11.dtd">
<svg width="100%" height="100%" viewBox="0 0 884 725" version="1.1" xmlns="http://www.w3.org/2000/svg" xmlns:xlink="http://www.w3.org/1999/xlink" xml:space="preserve" xmlns:serif="http://www.serif.com/" style="fill-rule:evenodd;clip-rule:evenodd;stroke-linejoin:round;stroke-miterlimit:2;">
    <g transform="matrix(1,0,0,1,0,382.56)">
        <path d="M866.03,159.2C871.55,164.45 876.89,169.9 882.13,175.43C879.67,175.43 877.22,175.42 874.77,175.45C875.35,177.84 876.59,179.98 877.78,182.12C876.98,182.4 875.39,182.96 874.59,183.24C873.11,180.89 872.67,177.87 870.41,176.06C869.07,177.71 867.6,179.24 866.01,180.66C866.01,173.5 865.98,166.35 866.03,159.2" style="fill:white;fill-rule:nonzero;"/>
    </g>
    <g transform="matrix(1,0,0,1,0,63)">
        <path d="M45.44,31.6C48.14,42.75 57.37,51.54 68.34,54.51C60.62,55.62 52.75,55.07 44.98,54.9C45.01,47.14 44.31,39.3 45.44,31.6M760.66,56.31C768.01,55.27 775.51,55.76 782.92,55.96C783.07,63.43 783.66,71.03 782.43,78.42C779.56,67.9 771.19,59.27 760.66,56.31M735.33,301.03C737.34,292.2 739.26,283.35 741.38,274.54C741.95,276.98 742.18,279.48 742.11,281.99C741.98,288.33 742.34,294.68 741.89,301.01C739.7,301.22 737.5,301.21 735.33,301.03M697.89,466C698.65,466.02 700.18,466.05 700.95,466.06C701.44,474.36 700.93,482.67 701.11,490.97C701.19,493.52 701.04,496.07 700.63,498.59C697.66,496.69 694.54,495.04 691.51,493.26C693.59,484.16 695.72,475.08 697.89,466M298.63,629.43C310.43,627.84 322.15,623.89 331.93,616.99C332.07,621.25 332.04,625.52 331.83,629.78C325.24,630.14 318.63,629.86 312.03,629.94C307.56,629.81 303.05,630.28 298.63,629.43M619.31,616.82C629.1,623.49 640.41,628.18 652.28,629.29C648.28,630.4 644.1,629.93 640.01,629.96C633.06,629.79 626.11,630.23 619.18,629.77C618.96,625.45 619.05,621.13 619.31,616.82" style="fill:rgb(244,244,244);fill-rule:nonzero;"/>
    </g>
    <g transform="matrix(1,0,0,1,0,5.26)">
        <path d="M64.22,33.04C68.89,31.08 74.06,31.17 79.03,31.13C120.03,31.08 161.02,31.17 202.02,31.1C207.04,31.08 212.18,31.11 217,32.69C226.34,36.06 234.05,44.03 236.51,53.73C238.04,59.78 239.03,65.95 240.36,72.05C243.21,85.66 245.79,99.34 248.83,112.91L249.88,112.96C263.58,113.01 277.29,112.94 291,112.99C304.66,113.01 318.31,113.01 331.97,112.99C345.66,112.96 359.35,112.97 373.04,112.99C386.68,113.01 400.32,113.01 413.96,112.99C427.64,112.96 441.32,112.96 455,112.99C468.65,113.01 482.3,113.01 495.95,112.99C509.67,112.96 523.38,112.96 537.09,112.99C550.74,113.01 564.38,113.01 578.02,112.99C591.71,112.97 605.39,112.96 619.08,112.99C632.73,113.01 646.39,113.01 660.06,112.99C673.73,112.96 687.41,112.97 701.09,112.99C714.74,113.01 728.38,113.01 742.04,112.99C748.24,113.03 754.56,112.59 760.66,114.05C771.19,117.01 779.56,125.64 782.43,136.16C783.37,141.34 783.26,146.7 782.23,151.85C778.87,166.37 775.62,180.91 772.32,195.44C769.3,208.76 766.28,222.09 763.27,235.42C760.07,249.51 756.89,263.61 753.68,277.7C750.67,291.09 747.61,304.47 744.59,317.86C743.49,322.66 742.41,327.47 741.38,332.28C739.26,341.09 737.34,349.94 735.33,358.77C732.15,372.67 729.01,386.58 725.86,400.48C723.84,408.16 722.99,416.22 719.75,423.53C716.12,430.93 709.68,437.2 701.69,439.64C697.65,441.17 693.28,441.26 689.02,441.22C679.36,441.21 669.71,441.18 660.05,441.24C646.37,441.27 632.7,441.28 619.02,441.24C605.37,441.19 591.71,441.19 578.06,441.23C564.38,441.28 550.7,441.28 537.01,441.24C523.36,441.19 509.7,441.19 496.04,441.23C482.35,441.27 468.66,441.28 454.97,441.24C441.32,441.19 427.67,441.19 414.02,441.23C400.34,441.28 386.66,441.28 372.98,441.23C359.32,441.19 345.66,441.19 332,441.24C326.65,441.28 321.31,441.23 315.96,441.29C318.83,455.03 321.57,468.79 324.51,482.52C327.01,482.49 329.51,482.48 332.02,482.49C345.66,482.54 359.3,482.53 372.94,482.5C386.63,482.46 400.32,482.46 414.02,482.5C427.68,482.53 441.35,482.53 455.02,482.5C468.68,482.46 482.35,482.46 496.02,482.5C509.69,482.53 523.36,482.54 537.03,482.5C550.72,482.47 564.4,482.46 578.08,482.5C591.73,482.53 605.38,482.53 619.04,482.49C632.7,482.46 646.37,482.48 660.04,482.49C663.56,482.48 667.08,482.58 670.61,482.57C680.4,483.13 689.63,488.7 694.76,497.05C699.68,504.96 700.4,514.88 697.89,523.74C695.72,532.82 693.59,541.9 691.51,551C694.54,552.78 697.66,554.43 700.63,556.33C704.23,558.92 707.64,561.8 710.76,564.96C721.7,575.66 728.75,590.1 731.16,605.17C733.23,618.94 731.24,633.22 725.38,645.86C719.94,657.61 711.39,667.88 700.67,675.18C686.64,684.79 669.12,688.66 652.28,687.03C640.41,685.92 629.1,681.23 619.31,674.56C608.99,667.55 600.85,657.58 595.33,646.45C589.37,633.83 587.28,619.45 589.29,605.65C591.3,590.13 598.75,575.56 609.84,564.57C599.23,564.41 588.62,564.56 578.01,564.49C564.38,564.46 550.75,564.47 537.13,564.49C523.43,564.52 509.73,564.51 496.04,564.49C482.35,564.47 468.67,564.47 454.98,564.49C441.32,564.51 427.67,564.51 414.01,564.49C400.34,564.47 386.67,564.47 373,564.49C362.4,564.56 351.8,564.41 341.2,564.57C352.07,575.73 360.15,590.07 361.94,605.71C363.85,619.52 361.86,633.92 355.74,646.49C350.39,657.75 342.13,667.56 331.93,674.73C322.15,681.63 310.43,685.58 298.63,687.17C281.94,688.55 264.59,684.84 250.71,675.26C239.93,667.96 231.36,657.65 225.74,645.95C220.25,634.04 218.17,620.73 219.55,607.71C220.77,598.35 223.72,589.22 228.08,580.86C231.52,575.14 235.54,569.73 240.18,564.93C244.78,560.69 249.71,556.81 255.07,553.57C253.38,543.54 251.01,533.62 249.11,523.62C246.31,509.89 243.49,496.16 240.67,482.44C237.83,468.56 234.99,454.7 232.14,440.83C229.34,427.15 226.52,413.48 223.74,399.8C220.91,386.14 218.14,372.48 215.32,358.83C213.42,349.63 211.61,340.42 209.61,331.24C208.75,326.75 207.84,322.27 206.92,317.79C204.16,304.32 201.4,290.85 198.64,277.38C195.8,263.5 192.96,249.63 190.12,235.76C187.33,222.12 184.52,208.47 181.75,194.82C178.9,181.04 176.11,167.24 173.28,153.46C171.73,146.06 170.34,138.62 168.62,131.25C167.58,125.41 166.42,119.59 165.12,113.8L164.89,112.99C134.54,112.88 104.2,113.04 73.85,112.95C72,112.83 70.15,112.65 68.34,112.25C57.37,109.28 48.14,100.49 45.44,89.34C45.09,87.57 44.95,85.77 44.88,83.97C45.42,73.72 43.99,63.33 45.84,53.19C48.54,44.16 55.6,36.7 64.22,33.04M454.93,177.3C448.78,180.9 445.16,187.83 444.72,194.83C444.79,208.46 444.72,222.09 444.75,235.72C444.73,239.33 444.73,242.95 444.83,246.57C434.54,246.4 424.25,246.53 413.95,246.49C403.31,246.53 392.67,246.4 382.03,246.55C378.72,246.49 375.64,247.76 372.78,249.29C368.16,252.41 364.28,257.08 363.11,262.63C362.44,267.61 362.85,272.65 362.76,277.66C362.78,281.65 362.61,285.66 362.88,289.66C363.26,296.08 367.53,301.73 372.8,305.13C376.3,306.79 380.05,308.01 383.98,307.97C394,308.03 404.03,307.96 414.06,307.99C424.31,307.96 434.57,308.08 444.82,307.92C444.73,311.2 444.72,314.49 444.76,317.79C444.74,331.74 444.76,345.7 444.74,359.66C445.17,366.64 448.84,373.41 454.92,377.02C461.96,380.89 470.27,379.47 477.95,379.74C483.97,379.63 490.69,380.4 495.98,376.93C502.08,373.44 506.3,366.76 506.29,359.66C506.19,345.69 506.28,331.72 506.24,317.75C506.28,314.47 506.26,311.2 506.17,307.92C516.43,308.07 526.7,307.96 536.97,307.99C546.97,307.97 556.97,308.02 566.97,307.97C570.9,307.97 574.78,306.97 578.24,305.11C581.46,303 584.58,300.45 586.12,296.8C589.13,290.88 588.48,284.08 588.49,277.66C588.36,271.21 589.31,264.37 586.43,258.35C584.93,254.42 581.68,251.62 578.28,249.34C575.47,247.57 572.25,246.51 568.91,246.54C558.28,246.41 547.64,246.52 537.01,246.49C526.73,246.54 516.45,246.39 506.17,246.57C506.26,242.99 506.27,239.4 506.24,235.82C506.3,222.16 506.18,208.5 506.3,194.83C506.34,187.66 502.07,181.04 496.1,177.3C488.67,173.22 480,174.79 471.92,174.48C466.14,174.26 460.15,174.53 454.93,177.3" style="fill:rgb(86,118,97);fill-rule:nonzero;"/>
    </g>
    <g transform="matrix(1,0,0,1,0,381.89)">
        <path d="M865.01,157.75C869.93,161.55 873.91,166.44 878.44,170.69C880.26,172.75 882.94,174.3 883.7,177.11C881.21,177.13 878.72,177.11 876.25,177.11C877.26,179.06 878.27,181.02 879.29,182.99C877.65,183.97 875.9,184.74 874.1,185.36C872.85,183 871.26,180.75 870.77,178.08C869.08,179.74 867.68,182.33 865.01,182.33C864.99,174.13 864.98,165.94 865.01,157.75M866.03,159.87C865.98,167.02 866.01,174.17 866.01,181.33C867.6,179.91 869.07,178.38 870.41,176.73C872.67,178.54 873.11,181.56 874.59,183.91C875.39,183.63 876.98,183.07 877.78,182.79C876.59,180.65 875.35,178.51 874.77,176.12C877.22,176.09 879.67,176.1 882.13,176.1C876.89,170.57 871.55,165.12 866.03,159.87" style="fill:rgb(94,95,103);fill-rule:nonzero;"/>
    </g>
</svg>
