<?xml version="1.0" encoding="UTF-8" standalone="no"?>
<!DOCTYPE svg PUBLIC "-//W3C//DTD SVG 1.1//EN" "http://www.w3.org/Graphics/SVG/1.1/DTD/svg11.dtd">
<svg width="100%" height="100%" viewBox="0 0 920 738" version="1.1" xmlns="http://www.w3.org/2000/svg" xmlns:xlink="http://www.w3.org/1999/xlink" xml:space="preserve" xmlns:serif="http://www.serif.com/" style="fill-rule:evenodd;clip-rule:evenodd;stroke-linejoin:round;stroke-miterlimit:2;">
    <g transform="matrix(1,0,0,1,0,-26.12)">
        <path d="M415.51,69.51C428.4,57.71 446.49,52.93 463.68,54.88C475.9,56.03 487.27,61.77 496.65,69.49C504.69,76.54 509.85,86.03 515.06,95.2C522.63,108.29 530.16,121.4 537.74,134.48C538.01,134.95 538.54,135.88 538.81,136.35C546.69,150.05 554.6,163.72 562.49,177.42C567.76,186.54 573.02,195.68 578.29,204.8C580.98,209.5 583.7,214.18 586.4,218.87C594.22,232.42 602.03,245.98 609.86,259.53C613.12,265.2 616.39,270.88 619.69,276.54C624.38,284.74 629.12,292.92 633.85,301.11C641.74,314.83 649.67,328.53 657.57,342.25C658.76,344.33 660.01,346.39 661.19,348.5C667.67,359.8 674.22,371.07 680.72,382.37C687.87,394.77 695.02,407.17 702.18,419.57C703.17,421.3 704.16,423.03 705.17,424.76C712.97,438.26 720.74,451.77 728.55,465.26C733.23,473.4 737.91,481.54 742.63,489.66C745.75,495.12 748.89,500.57 752.05,506.01C759.84,519.56 767.67,533.09 775.47,546.64C778.37,551.64 781.24,556.65 784.14,561.65C789.18,570.41 794.23,579.16 799.29,587.91C804.63,597.18 809.98,606.46 815.34,615.73C819.25,622.68 822.75,630.01 824.27,637.89C826.5,651.27 824.86,665.45 818.35,677.48C808.35,697.54 786.62,711.19 764.1,710.73C561.74,710.78 359.37,710.75 157.01,710.74C147.62,710.75 137.96,711.08 129.02,707.76C115.24,703.33 103.04,693.86 95.78,681.3C88.96,670.34 86.19,657.27 86.89,644.46C87.32,639.07 88.5,633.74 90.43,628.7C93.38,620.76 97.94,613.59 102.12,606.28C105.56,600.3 109.01,594.35 112.44,588.37C128.36,560.72 144.33,533.11 160.27,505.47C163.13,500.51 166,495.56 168.84,490.6C173.79,482.04 178.73,473.47 183.67,464.9C191.51,451.31 199.36,437.72 207.19,424.12C208.25,422.27 209.31,420.41 210.38,418.56C217.26,406.73 224.07,394.86 230.91,383.01C246.77,355.49 262.65,327.98 278.53,300.47C283.26,292.24 288.02,284.03 292.76,275.8C295.71,270.67 298.68,265.54 301.64,260.41C309.53,246.67 317.49,232.98 325.37,219.24C328.03,214.67 330.67,210.09 333.29,205.49C338.72,196.15 344.1,186.78 349.5,177.42C357.3,163.93 365.08,150.42 372.87,136.92C373.48,135.86 374.08,134.81 374.69,133.75C382,121.11 389.28,108.45 396.59,95.81C402.04,86.5 406.97,76.46 415.51,69.51M411.94,280.2L412.34,280.38C408.77,281.35 405.24,283.07 403.14,286.24C400.12,289.97 399.87,294.98 400.09,299.57C401.05,313.9 401.7,328.24 402.51,342.58C403.27,356.07 403.97,369.56 404.73,383.05C405.47,396.62 406.19,410.2 406.95,423.77C407.69,437.64 408.47,451.5 409.21,465.37C408.99,471.26 410.44,477.25 414.63,481.58C417.6,483.8 421.2,485.14 424.94,485.09C435.3,485.18 445.66,485.09 456.02,485.12C466.36,485.09 476.7,485.18 487.03,485.09C490.75,485.21 494.26,483.81 497.25,481.68C501.51,477.46 502.93,471.45 502.81,465.62C503.48,451.8 504.3,438 505.02,424.19C505.79,410.43 506.53,396.66 507.28,382.89C508.04,369.08 508.79,355.27 509.54,341.45C510.33,327.5 511.01,313.54 511.86,299.59C511.96,296.39 512.1,293.09 510.91,290.05C509.03,284.19 503.07,280.41 497.09,280.04C483.39,280.22 469.69,280.06 455.98,280.12C441.3,280.16 426.62,280.02 411.94,280.2M437.3,511.31C428.68,514.06 421.13,519.32 414.41,525.27L414.44,525.6C408.27,531.55 403.75,538.96 400.73,546.95C397.92,554.68 396.54,562.94 397.14,571.17C397.38,577.49 399.49,583.49 401.13,589.53L401.57,589.35C404.24,597.07 409.11,603.73 414.71,609.58C425.85,619.89 440.68,626.37 455.96,626.4C471.29,626.4 486.19,619.91 497.31,609.51C503.48,603.47 508.02,596.01 511.19,588.02C516.12,574.87 516.27,560.06 511.25,546.91C508.14,538.69 503.42,531.08 497.06,524.99C486.16,514.35 471.19,508.27 455.96,508.35C449.64,508.45 443.34,509.46 437.3,511.31" style="fill:none;fill-rule:nonzero;stroke:rgb(200,0,0);stroke-width:19.73px;"/>
    </g>
</svg>
