<?xml version="1.0" encoding="UTF-8" standalone="no"?>
<!DOCTYPE svg PUBLIC "-//W3C//DTD SVG 1.1//EN" "http://www.w3.org/Graphics/SVG/1.1/DTD/svg11.dtd">
<svg width="100%" height="100%" viewBox="0 0 874 737" version="1.1" xmlns="http://www.w3.org/2000/svg" xmlns:xlink="http://www.w3.org/1999/xlink" xml:space="preserve" xmlns:serif="http://www.serif.com/" style="fill-rule:evenodd;clip-rule:evenodd;stroke-linejoin:round;stroke-miterlimit:2;">
    <g transform="matrix(1,0,0,1,0,186.13)">
        <path d="M751.31,190C753.32,181.12 755.26,172.22 757.4,163.37C758.82,172.17 757.98,181.17 757.94,190.05C755.72,190.06 753.51,190.04 751.31,190M713.9,354.83C714.66,354.88 716.19,354.97 716.95,355.02C717.1,365.83 717.57,376.71 716.66,387.5C713.69,385.58 710.57,383.9 707.51,382.14C709.58,373.02 711.73,363.92 713.9,354.83" style="fill:rgb(244,244,244);fill-rule:nonzero;"/>
    </g>
    <g transform="matrix(1,0,0,1,0,17.16)">
        <path d="M80.17,33.16C84.84,31.2 90,31.26 94.97,31.23C135.99,31.16 177,31.29 218.02,31.18C223.05,31.18 228.21,31.2 233.04,32.8C242.36,36.17 250.04,44.13 252.5,53.81C254.06,59.89 255.05,66.11 256.39,72.24C259.19,85.83 261.83,99.45 264.8,112.99L265.83,113.05C279.54,113.12 293.25,113.03 306.96,113.09C320.64,113.12 334.33,113.12 348.01,113.09C361.67,113.06 375.33,113.06 388.98,113.09C402.65,113.12 416.31,113.12 429.98,113.09C443.64,113.06 457.3,113.06 470.96,113.09C484.66,113.12 498.36,113.12 512.06,113.09C525.73,113.06 539.4,113.06 553.07,113.09C566.71,113.12 580.36,113.12 594.01,113.09C607.71,113.06 621.41,113.06 635.1,113.09C648.76,113.12 662.42,113.12 676.08,113.09C689.74,113.06 703.4,113.06 717.06,113.09C730.73,113.12 744.39,113.13 758.06,113.08C763.27,112.99 768.5,113.1 773.71,113.4C779.65,114.96 785.63,117.39 790,121.85C793.96,125.89 796.89,130.92 798.46,136.36C799.44,141.79 799.25,147.41 798.05,152.79C794.77,166.79 791.68,180.84 788.48,194.86C785.33,208.74 782.2,222.63 779.04,236.5C776,250 772.93,263.5 769.87,277C766.78,290.65 763.68,304.29 760.6,317.95C759.49,322.73 758.44,327.53 757.4,332.34C755.26,341.19 753.32,350.09 751.31,358.97C748.13,372.84 745,386.72 741.86,400.6C740.4,406.57 739.32,412.64 737.65,418.56C734.84,428.48 727.01,437.13 716.97,439.97C712.13,441.59 706.97,441.31 701.95,441.32C693.33,441.31 684.7,441.27 676.08,441.34C662.4,441.39 648.71,441.39 635.03,441.34C621.38,441.28 607.73,441.28 594.09,441.34C580.41,441.39 566.74,441.39 553.06,441.34C539.39,441.28 525.72,441.28 512.05,441.34C498.37,441.39 484.7,441.39 471.02,441.34C457.35,441.28 443.68,441.28 430.01,441.34C416.32,441.39 402.64,441.39 388.95,441.34C375.3,441.28 361.66,441.28 348.01,441.34C342.67,441.39 337.32,441.36 331.97,441.39C334.81,455.12 337.57,468.86 340.5,482.58C342.98,482.57 345.47,482.57 347.96,482.59C361.63,482.64 375.29,482.64 388.96,482.59C402.65,482.55 416.34,482.55 430.03,482.59C443.68,482.63 457.33,482.64 470.98,482.59C484.67,482.55 498.36,482.55 512.04,482.59C525.71,482.63 539.37,482.64 553.03,482.59C566.7,482.55 580.37,482.55 594.04,482.59C607.69,482.63 621.35,482.64 635.01,482.58C648.71,482.55 662.4,482.56 676.1,482.58C679.6,482.59 683.11,482.67 686.62,482.67C696.4,483.23 705.62,488.81 710.76,497.14C715.67,505.04 716.39,514.95 713.9,523.8C711.73,532.89 709.58,541.99 707.51,551.11C710.57,552.87 713.69,554.55 716.66,556.47C720.28,559 723.61,561.93 726.75,565.04C737.96,576.1 745.29,591.05 747.27,606.67C749.27,620.05 746.8,633.79 741.43,646.12C735.88,657.83 727.22,668.12 716.45,675.35C702.56,684.99 685.1,688.68 668.39,687.22C656.59,685.57 644.9,681.81 635.18,674.76C624.97,667.61 616.64,657.81 611.27,646.56C605.64,633.86 603.2,619.65 605.14,605.84C607.44,590.31 614.67,575.57 625.97,564.62C615.31,564.58 604.66,564.64 594,564.59C580.36,564.56 566.72,564.56 553.08,564.59C539.39,564.62 525.7,564.62 512.02,564.59C498.36,564.56 484.7,564.56 471.04,564.59C457.36,564.62 443.68,564.62 429.99,564.59C416.32,564.56 402.64,564.56 388.96,564.59C378.32,564.63 367.68,564.58 357.04,564.62C368.09,575.68 376.1,590.16 377.94,605.82C379.82,619.61 377.78,633.98 371.73,646.54C366.53,657.88 358.09,667.68 347.84,674.74C338.11,681.83 326.42,685.6 314.59,687.24C297.88,688.68 280.45,684.94 266.61,675.22C255.67,667.79 246.64,657.41 241.43,645.21C235.95,633.19 234,619.62 235.79,606.55C237.84,590.96 244.9,575.97 256.33,565.09C260.8,560.75 265.61,556.75 271.04,553.66C269.32,543.36 266.88,533.2 264.95,522.94C262.18,509.34 259.38,495.75 256.6,482.16C253.77,468.42 250.97,454.69 248.14,440.95C245.36,427.31 242.54,413.68 239.76,400.04C236.95,386.39 234.17,372.73 231.35,359.09C229.45,349.83 227.62,340.56 225.6,331.34C224.73,326.86 223.85,322.38 222.92,317.92C220.17,304.43 217.4,290.95 214.64,277.47C211.81,263.61 208.96,249.75 206.12,235.89C203.34,222.28 200.55,208.66 197.77,195.05C192.26,167.73 186.38,140.5 181.06,113.15C168.09,113.06 155.11,113.16 142.14,113.1C128.76,113.04 115.38,113.04 102.01,113.09C96.42,113.08 90.79,113.37 85.24,112.56C73.88,109.86 64.23,100.89 61.43,89.45C61.01,87.36 60.89,85.22 60.85,83.1C61.42,73.22 60.06,63.21 61.8,53.42C64.46,44.34 71.53,36.86 80.17,33.16" style="fill:rgb(86,118,97);fill-rule:nonzero;"/>
    </g>
</svg>
