<?xml version="1.0" encoding="UTF-8" standalone="no"?>
<!DOCTYPE svg PUBLIC "-//W3C//DTD SVG 1.1//EN" "http://www.w3.org/Graphics/SVG/1.1/DTD/svg11.dtd">
<svg width="100%" height="100%" viewBox="0 0 860 710" version="1.1" xmlns="http://www.w3.org/2000/svg" xmlns:xlink="http://www.w3.org/1999/xlink" xml:space="preserve" xmlns:serif="http://www.serif.com/" style="fill-rule:evenodd;clip-rule:evenodd;stroke-linejoin:round;stroke-miterlimit:2;">
    <g transform="matrix(1,0,0,1,0,-14.21)">
        <path d="M341.36,74.86C343.25,74.58 345.17,74.57 347.08,74.61C349.25,74.67 351.42,74.79 353.59,74.91C363.66,77.08 373.41,82.27 379.52,90.76C383.32,95.79 385.81,101.69 387.36,107.77C387.56,110.29 387.75,112.81 387.83,115.34C387.83,117.53 387.72,119.72 387.61,121.91C385.14,135.33 375.45,145.44 367.96,156.27C360.81,166.11 353.66,175.94 346.51,185.77C343.88,189.39 341.25,193 338.63,196.61C328.59,210.42 318.55,224.24 308.52,238.05C307.44,239.53 306.37,241.01 305.3,242.49C296.21,254.89 287.31,267.42 278.12,279.75C287.39,279.64 296.66,279.68 305.94,279.71C319.6,279.75 333.27,279.75 346.93,279.71C360.61,279.67 374.28,279.67 387.96,279.71C401.65,279.75 415.34,279.75 429.03,279.71C442.7,279.67 456.37,279.67 470.05,279.71C483.69,279.75 497.33,279.75 510.97,279.71C524.65,279.67 538.33,279.67 552.01,279.71C561.31,279.78 570.61,279.67 579.92,279.8C570.57,267.26 561.5,254.53 552.26,241.91C551.54,240.91 550.81,239.91 550.09,238.91C529.93,211.18 509.8,183.42 489.62,155.7C482.52,145.54 473.71,136.01 470.7,123.63C470.47,120.86 470.21,118.1 470.17,115.32C470.19,113.13 470.31,110.93 470.44,108.74C472.07,102.11 474.59,95.56 478.86,90.16C485.57,81.69 495.7,76.1 506.4,74.73C507.94,74.54 509.5,74.55 511.07,74.6C513.2,74.68 515.35,74.8 517.5,74.91C524.31,76.57 531.25,78.83 536.64,83.5C542.48,88.51 546.79,94.96 551.3,101.12C554.87,106.08 558.49,111.01 562.08,115.95C582.01,143.31 601.91,170.68 621.85,198.03C625.82,203.53 629.81,209.01 633.81,214.48C639.77,222.7 645.74,230.91 651.73,239.11C659.38,249.64 667.02,260.18 674.71,270.68C676.88,273.67 679.04,276.68 681.19,279.68C693.05,279.7 704.9,279.66 716.76,279.71C730.2,279.75 743.64,279.76 757.09,279.71C763.22,279.77 769.47,279.27 775.51,280.63C786.23,283.7 794.93,292.75 797.62,303.56C798,305.32 798.12,307.13 798.2,308.93C798.17,318.86 798.62,328.82 797.55,338.72C795.27,345.66 790.98,352.05 784.91,356.22C781.41,358.53 777.47,360.08 773.49,361.34C768.06,361.63 762.62,361.74 757.18,361.67C756.83,364.29 756.47,366.91 756.19,369.55C754.48,380.76 752.92,392 751.31,403.24C749.38,416.65 747.46,430.07 745.55,443.49C743.55,457.37 741.59,471.25 739.6,485.14C737.68,498.56 735.76,511.99 733.85,525.42C731.86,539.34 729.88,553.25 727.89,567.17C725.64,580.51 724.91,594.16 721.22,607.22C719.8,611.26 717.95,615.15 715.84,618.88C706.6,634.52 690.07,645.74 672.04,648.22C659.48,649.67 646.78,648.63 634.17,648.96C620.44,648.98 606.71,648.98 592.99,648.96C579.37,648.94 565.75,648.94 552.14,648.96C538.42,648.98 524.7,648.98 510.98,648.96C497.35,648.94 483.72,648.94 470.09,648.96C456.38,648.98 442.67,648.98 428.96,648.96C415.31,648.94 401.65,648.94 388,648.96C374.33,648.98 360.66,648.98 346.99,648.96C333.3,648.94 319.62,648.94 305.93,648.96C292.26,648.98 278.59,648.98 264.91,648.96C251.27,648.94 237.62,648.94 223.98,648.96C211.7,648.74 199.37,649.54 187.12,648.43C185.78,648.27 184.44,648.13 183.11,647.99C166.57,644.32 151.34,634.17 142.56,619.56C140.34,615.72 138.43,611.69 136.92,607.53C132.98,594.16 132.35,580.1 129.98,566.42C128.08,553.03 126.15,539.64 124.24,526.25C122.24,512.3 120.25,498.35 118.26,484.4C116.34,470.92 114.4,457.43 112.48,443.94C108.64,416.52 104.5,389.13 100.76,361.69C96.32,361.68 91.88,361.94 87.45,361.57C74.65,360.26 63.33,350.37 60.4,337.82C59.15,328.29 59.88,318.62 59.77,309.03C59.79,308.66 59.82,307.91 59.84,307.54C60.92,294.03 72.14,282.29 85.39,280C90.34,279.79 95.29,279.7 100.24,279.69C114.15,279.69 128.05,279.66 141.96,279.71C153.57,279.76 165.18,279.73 176.79,279.73C178.75,276.99 180.71,274.26 182.69,271.54C190.64,260.64 198.58,249.73 206.52,238.82C212.31,230.87 218.1,222.93 223.87,214.97C228.1,209.2 232.29,203.4 236.51,197.63C256.43,170.25 276.36,142.87 296.27,115.49C299.61,110.9 302.95,106.32 306.27,101.72C311.23,95.04 315.73,87.79 322.46,82.7C327.91,78.43 334.61,76.11 341.36,74.86M264.6,369.59C261.64,372.81 258.73,376.22 257.12,380.35C254.11,387.38 254.46,395.17 254.5,402.65L254.5,443.89C254.51,457.5 254.51,471.11 254.5,484.72C254.51,498.45 254.5,512.17 254.51,525.9C254.46,533.36 254.09,541.13 257.06,548.16C258.63,552.29 261.49,555.73 264.48,558.91L264.47,559.05C268.61,562.02 273.06,564.71 278.08,565.85C287.87,568.55 298.61,565.39 306.16,558.8C308.01,556.83 309.93,554.88 311.41,552.61C316.52,544.7 316.46,534.97 316.25,525.91C316.26,512.17 316.25,498.43 316.25,484.68L316.25,443.85C316.26,430.11 316.26,416.38 316.25,402.64C316.31,395.21 316.62,387.47 313.66,380.48C312.22,376.57 309.54,373.31 306.65,370.37L306.66,370.28C301.92,366.23 296.27,363.15 290.04,362.25C280.96,360.6 271.73,364.06 264.6,369.59M415.68,364.88C407.62,368.43 401.84,376.03 399.37,384.35C397.72,390.43 398.36,396.79 398.26,403.01C398.24,416.68 398.25,430.35 398.25,444.03L398.25,485.09C398.24,498.74 398.25,512.4 398.25,526.05C398.32,531.76 397.87,537.55 399.06,543.17C400.57,549.15 403.82,554.7 408.34,558.92C413.89,564.22 421.59,566.34 429.05,567.05C434.59,566.4 440.28,565.38 445.05,562.31C452.63,557.84 457.78,549.84 459.29,541.23C460.01,536.23 459.71,531.16 459.75,526.12C459.75,512.43 459.74,498.73 459.75,485.04C459.75,471.38 459.76,457.72 459.75,444.06C459.75,430.38 459.74,416.69 459.75,403C459.64,396.54 460.34,389.9 458.39,383.64C456.57,378.14 453.57,372.88 449,369.21C443.53,364.29 436.22,362.27 429.04,361.62C424.49,362.21 419.85,362.86 415.68,364.88M551.82,369.82C549.05,372.86 546.19,375.94 544.61,379.8C541.34,387 541.68,395.09 541.75,402.81L541.75,444.21C541.74,457.75 541.74,471.29 541.75,484.83L541.75,526.28C541.67,533.76 541.39,541.58 544.49,548.58C546.04,552.5 548.89,555.66 551.71,558.71C556.32,562.68 561.92,565.51 567.98,566.4C577.08,568.04 586.42,564.67 593.46,558.93C602.71,550.9 604.21,537.93 603.49,526.42C603.5,512.57 603.49,498.72 603.5,484.87C603.49,471.33 603.5,457.79 603.49,444.26C603.51,430.45 603.5,416.64 603.5,402.83C603.49,398.31 603.69,393.76 603.14,389.26C602.38,381.81 598.89,374.75 593.39,369.66C589.4,366.73 585.12,364.01 580.25,362.87C570.36,360.12 559.5,363.23 551.82,369.82" style="fill:rgb(86,118,97);fill-rule:nonzero;"/>
    </g>
</svg>
