<?xml version="1.0" encoding="UTF-8" standalone="no"?>
<!DOCTYPE svg PUBLIC "-//W3C//DTD SVG 1.1//EN" "http://www.w3.org/Graphics/SVG/1.1/DTD/svg11.dtd">
<svg width="100%" height="100%" viewBox="0 0 925 772" version="1.1" xmlns="http://www.w3.org/2000/svg" xmlns:xlink="http://www.w3.org/1999/xlink" xml:space="preserve" xmlns:serif="http://www.serif.com/" style="fill-rule:evenodd;clip-rule:evenodd;stroke-linejoin:round;stroke-miterlimit:2;">
    <g transform="matrix(1,0,0,1,0,-8.98)">
        <path d="M378.1,63.07C381.67,62.24 385.35,62.37 388.99,62.32C436.64,62.43 484.3,62.28 531.95,62.39C534.46,62.46 537.01,62.53 539.48,63.07C547.99,65 555.26,70.91 559.33,78.57C563.67,86.7 567.6,95.04 571.78,103.26C575.19,103.25 578.6,103.24 582.01,103.23C595.7,103.19 609.39,103.19 623.08,103.23C636.74,103.26 650.39,103.26 664.05,103.23C677.74,103.2 691.44,103.19 705.13,103.23C713.57,103.28 722.02,103.07 730.45,103.6C737.45,105.45 742.87,110.87 745.59,117.47C746.58,133.37 745.72,149.32 746.11,165.23C746.44,175.9 736.62,185.51 726.03,185.24C719.05,185.32 712.08,185.24 705.11,185.23C691.43,185.18 677.75,185.19 664.08,185.23C650.41,185.27 636.73,185.27 623.06,185.23C609.4,185.19 595.74,185.19 582.08,185.23C568.41,185.27 554.74,185.27 541.07,185.23C527.39,185.19 513.72,185.19 500.05,185.23C486.35,185.27 472.66,185.27 458.96,185.23C445.29,185.19 431.62,185.19 417.95,185.23C404.29,185.27 390.62,185.27 376.96,185.23C363.29,185.19 349.63,185.19 335.97,185.23C322.28,185.27 308.6,185.27 294.92,185.23C281.24,185.19 267.57,185.19 253.9,185.23C240.24,185.27 226.58,185.27 212.92,185.23C203.81,185.04 194.66,185.69 185.59,184.56C179.88,181.79 175.05,177.27 172.53,171.39C171.28,155.19 172.35,138.93 171.89,122.71C171.93,121.21 172.04,119.7 172.38,118.24C174.73,110.62 181.35,104.48 189.36,103.45C197.2,102.88 205.08,103.34 212.93,103.23C226.58,103.26 240.22,103.26 253.87,103.23C267.59,103.2 281.31,103.19 295.02,103.23C308.64,103.26 322.26,103.26 335.89,103.23C339.34,103.21 342.79,103.21 346.25,103.21C350.35,95 354.41,86.76 358.59,78.58C362.48,70.93 369.8,65.18 378.1,63.07M212.64,226.22L213.05,226.22C226.67,226.21 240.28,226.19 253.9,226.23C267.57,226.26 281.25,226.26 294.93,226.23C308.59,226.2 322.25,226.2 335.92,226.23C349.6,226.26 363.29,226.26 376.98,226.23C390.65,226.2 404.32,226.2 417.98,226.23C431.66,226.26 445.33,226.26 459,226.23C472.67,226.2 486.34,226.2 500,226.23C513.66,226.26 527.32,226.26 540.98,226.23C554.68,226.2 568.38,226.2 582.08,226.23C595.73,226.26 609.39,226.26 623.05,226.23C636.74,226.2 650.43,226.2 664.12,226.23C677.73,226.26 691.34,226.26 704.95,226.23L705.3,226.23L705.29,226.93C705.16,240.32 705.23,253.72 705.25,267.11C705.28,281.01 705.28,294.91 705.25,308.81C705.21,322.23 705.21,335.65 705.25,349.07C705.28,363 705.28,376.92 705.25,390.84C705.21,404.27 705.21,417.71 705.26,431.14C705.28,445.05 705.28,458.97 705.25,472.88C705.21,486.3 705.21,499.73 705.26,513.15C705.28,527.06 705.28,540.98 705.25,554.9C705.21,568.58 705.21,582.26 705.25,595.94C705.28,609.61 705.28,623.27 705.25,636.93C705.17,644.17 705.32,651.42 705.19,658.66C704.75,676.48 696.41,694.27 682.12,705.15C676.44,709.75 670.04,713.52 663.01,715.63C656.25,717.88 649.1,718.74 641.99,718.61C518.98,718.63 395.97,718.62 272.95,718.61C247.76,718.74 224.03,701.04 216.1,677.28C215.09,674.11 214.19,670.89 213.52,667.64C212.22,657.43 212.87,647.13 212.75,636.87C212.78,623.21 212.79,609.55 212.75,595.88C212.72,581.97 212.72,568.07 212.74,554.16C212.79,540.74 212.79,527.33 212.75,513.92C212.72,500 212.72,486.09 212.74,472.17C212.79,458.74 212.79,445.32 212.75,431.89C212.72,417.98 212.72,404.06 212.75,390.15C212.79,376.72 212.79,363.29 212.74,349.86C212.72,335.95 212.72,322.03 212.75,308.11C212.79,294.67 212.79,281.23 212.74,267.8C212.66,253.94 212.85,240.08 212.64,226.22M316.02,324.06C314.46,332.32 315.56,340.81 315.26,349.17C315.24,363.04 315.24,376.91 315.26,390.79C315.24,404.46 315.25,418.14 315.25,431.81C315.25,445.49 315.24,459.16 315.26,472.84C315.24,486.5 315.25,500.17 315.25,513.84C315.25,527.52 315.24,541.19 315.26,554.87C315.24,568.55 315.25,582.22 315.25,595.9C315.67,604.79 314.17,613.92 316.44,622.63C318.87,631.17 327.39,636.4 335.95,636.9C339.86,636.2 343.96,635.6 347.28,633.24C352.84,629.76 356.05,623.34 356.37,616.89C356.71,609.89 356.39,602.88 356.49,595.88L356.49,554.86C356.5,541.18 356.5,527.51 356.49,513.83C356.5,500.18 356.49,486.54 356.5,472.89C356.49,459.18 356.5,445.48 356.49,431.77C356.5,418.12 356.49,404.48 356.5,390.84L356.5,349.16C356.44,342.8 356.58,336.43 356.48,330.06C356.42,325.09 355.01,320.02 351.92,316.07C347.93,311.39 342.05,308.67 335.96,308.23C326.89,308.63 317.89,314.87 316.02,324.06M438.86,325.97C438.08,333.69 438.69,341.46 438.5,349.2L438.5,390.83C438.51,404.5 438.5,418.16 438.51,431.82C438.49,445.49 438.5,459.15 438.5,472.81C438.51,486.49 438.5,500.18 438.51,513.86C438.49,527.54 438.5,541.22 438.51,554.9C438.51,568.57 438.5,582.24 438.51,595.91C438.63,603.25 438.22,610.6 438.71,617.92C438.96,622.67 441.04,627.22 444.4,630.57C448.07,634.76 453.63,636.23 458.95,636.9C462.62,636.2 466.52,635.84 469.71,633.73C474.77,630.49 478.65,625.07 479.17,618.99C479.91,611.31 479.33,603.57 479.5,595.87C479.49,582.21 479.5,568.55 479.49,554.9C479.51,541.21 479.5,527.52 479.5,513.83C479.49,500.17 479.51,486.5 479.49,472.83C479.5,459.14 479.49,445.46 479.49,431.77C479.49,418.12 479.5,404.46 479.49,390.81C479.5,376.91 479.49,363.01 479.49,349.12C479.48,343.39 479.53,337.66 479.52,331.93C479.46,327.3 479.11,322.4 476.57,318.38C472.88,312.31 466.1,308.54 459.04,308.24C449.29,308.48 439.84,316.02 438.86,325.97M562.28,324C560.71,332.29 561.83,340.79 561.51,349.17C561.51,363.04 561.5,376.91 561.51,390.78C561.49,404.46 561.5,418.14 561.5,431.82C561.51,445.48 561.5,459.14 561.51,472.8C561.49,486.48 561.51,500.16 561.5,513.84C561.5,527.5 561.49,541.16 561.51,554.83C561.5,568.51 561.51,582.2 561.5,595.88C561.9,604.7 560.47,613.72 562.61,622.38C564.92,631.01 573.47,636.36 582.07,636.89C585.97,636.22 590.06,635.65 593.38,633.32C599.01,629.87 602.27,623.42 602.62,616.93C602.97,609.91 602.65,602.88 602.74,595.86C602.76,582.2 602.75,568.53 602.75,554.87C602.75,541.2 602.76,527.52 602.74,513.85C602.76,500.2 602.75,486.54 602.75,472.89C602.75,459.19 602.76,445.49 602.74,431.8C602.76,418.14 602.74,404.49 602.75,390.84L602.75,349.13C602.42,340.78 603.54,332.32 601.98,324.07C600.12,314.86 591.11,308.64 582.03,308.24C573.04,308.71 564.17,314.9 562.28,324" style="fill:rgb(127,110,74);fill-rule:nonzero;"/>
    </g>
</svg>
