<?xml version="1.0" encoding="UTF-8" standalone="no"?>
<!DOCTYPE svg PUBLIC "-//W3C//DTD SVG 1.1//EN" "http://www.w3.org/Graphics/SVG/1.1/DTD/svg11.dtd">
<svg width="100%" height="100%" viewBox="0 0 942 767" version="1.1" xmlns="http://www.w3.org/2000/svg" xmlns:xlink="http://www.w3.org/1999/xlink" xml:space="preserve" xmlns:serif="http://www.serif.com/" style="fill-rule:evenodd;clip-rule:evenodd;stroke-linejoin:round;stroke-miterlimit:2;">
    <g transform="matrix(1,0,0,1,0,-17)">
        <path d="M649.56,65.72C665.75,62.33 683.45,65.39 697.08,74.93C704.95,79.87 710.84,87.19 717.52,93.53C739.31,115.35 761.17,137.1 782.91,158.97C794.64,170.71 801.92,187.28 801.07,204C801.4,215.51 797.4,226.76 791.37,236.43C786.28,244.14 779.28,250.26 772.85,256.8C756.47,273.1 740.13,289.44 723.72,305.72C717.99,311.81 707.38,311.2 701.86,305.12C654.81,258.17 607.88,211.11 560.84,164.16C556.66,160.43 554.63,154.57 555.8,149.07C556.44,144.74 559.81,141.67 562.76,138.75C579.73,121.74 596.68,104.71 613.63,87.69C623.24,77.26 635.38,68.39 649.56,65.72M514.54,188.68C519.81,186.94 526.27,187.6 530.37,191.6C578.04,239.26 625.81,286.83 673.48,334.5C679.12,340.12 679.58,350.1 673.84,355.83C563,466.98 452.03,578 341.01,688.98C339.08,690.58 337.74,693.3 335,693.55C285.87,702.16 236.72,710.68 187.59,719.33C179.81,720.77 171.45,721.67 163.95,718.52C153.53,714.42 145.63,704.21 144.91,692.95C144.48,686.87 146.01,680.93 146.94,674.97C155.24,627.94 163.39,580.88 171.66,533.84C172.14,532.02 171.88,529.81 173.19,528.34C284.47,416.89 395.94,305.62 507.27,194.23C509.45,192.1 511.63,189.78 514.54,188.68M510.16,272.35C506.07,273.25 502.66,275.9 499.71,278.74C436.34,342.03 373.07,405.42 309.74,468.75C305.54,473.27 299.76,477.36 298.99,483.96C296.93,492.54 302.54,501.98 311.01,504.36C317.64,506.87 325.53,504.38 330.1,499.11C395.46,433.83 460.74,368.47 526.08,303.17C530.25,299.33 532.57,293.61 531.85,287.94C530.97,277.72 520.13,269.99 510.16,272.35M210.93,546.54C206.13,574.12 201.31,601.69 196.49,629.27C209.68,642.56 223.12,655.62 236.32,668.89C263.87,664.38 291.34,659.33 318.85,654.56C319.1,639.04 318.96,623.52 319,608C298.47,607.94 277.92,608.31 257.4,607.81C257.7,587.33 257.19,566.83 257.66,546.34C242.09,546.66 226.51,546.4 210.93,546.54" style="fill:rgb(86,118,97);fill-rule:nonzero;"/>
    </g>
</svg>
