<?xml version="1.0" encoding="UTF-8" standalone="no"?>
<!DOCTYPE svg PUBLIC "-//W3C//DTD SVG 1.1//EN" "http://www.w3.org/Graphics/SVG/1.1/DTD/svg11.dtd">
<svg width="100%" height="100%" viewBox="0 0 250 250" version="1.1" xmlns="http://www.w3.org/2000/svg" xmlns:xlink="http://www.w3.org/1999/xlink" xml:space="preserve" xmlns:serif="http://www.serif.com/" style="fill-rule:evenodd;clip-rule:evenodd;stroke-linejoin:round;stroke-miterlimit:2;">
    <g transform="matrix(1,0,0,1,0,-0.91)">
        <path d="M119.45,41.57C131.38,39.69 144.06,43.71 153.05,51.74C160.44,58.09 165.29,67.21 166.86,76.8C168.93,89.14 165,102.25 156.71,111.59C150.75,118.17 142.79,122.95 134.1,124.83C120.84,127.9 106.26,123.82 96.33,114.56C83.17,102.87 78.94,82.46 86.27,66.47C91.94,53.12 105.01,43.24 119.45,41.57M36.6,65.57C48.03,63.62 59.95,71.37 63.24,82.4C66.46,91.79 62.67,102.88 54.7,108.69C49.37,112.9 42.13,114.63 35.47,113.25C24.7,111.17 15.95,101 15.94,89.95C15.56,78.19 24.99,67.2 36.6,65.57M186.49,113.65C204.9,109.59 225.14,117.67 235.79,133.17C241.32,140.91 244.6,150.32 244.77,159.86C245.35,176.09 236.98,192.37 223.37,201.26C212.62,208.57 198.81,211.22 186.12,208.42C175.88,206.06 166.24,200.54 159.48,192.43C152.14,183.71 147.8,172.37 147.97,160.93C147.91,148.78 152.78,136.75 161.06,127.88C168.01,120.92 176.75,115.55 186.49,113.65M195.95,149.74C192.48,146.55 189.14,143.22 185.54,140.18C184.52,138.95 182.79,139.95 182.01,140.92C179.19,143.9 176.38,146.9 173.74,150.05C176.48,154.71 181.35,157.62 185.04,161.49C181.73,165.4 177.57,168.68 174.87,173.03C176.92,177.44 181.9,179.92 185.06,183.6C185.51,183.45 186.39,183.15 186.84,183C190.4,179.73 193.46,175.94 196.84,172.48C200.93,175.87 204.27,180.24 208.95,182.85C212.26,179.64 215.5,176.32 218.42,172.76C219.39,171.21 217.77,170.03 216.82,169.07C213.83,166.26 210.81,163.48 207.79,160.71C211.01,157.03 214.54,153.63 217.63,149.84C217.64,149.39 217.67,148.48 217.68,148.03C214.3,144.62 210.93,141.05 206.89,138.41C202.77,141.69 199.64,146.01 195.95,149.74M4.77,143.42C7.62,133.8 16.86,126.26 27,125.99C35.32,125.78 43.66,125.93 51.99,125.91C58.43,125.95 64.61,128.57 69.33,132.91C54.09,141.41 43.16,157.08 40.9,174.43C32.33,174.37 23.76,174.53 15.19,174.33C9.2,174.08 4.1,168.9 3.89,162.92C3.62,156.43 3.4,149.81 4.77,143.42M57.41,161.4C65.21,146.18 82.83,136.36 99.86,138.37C112.64,144.31 127.43,145.65 141.01,141.77C136.09,155.17 135.94,170.28 141.19,183.6C145.18,194.47 152.73,203.67 161.78,210.74C131.5,210.79 101.22,210.8 70.94,210.74C62,210.98 53.35,203.91 52.55,194.85C51.82,183.58 51.67,171.53 57.41,161.4" style="fill:white;fill-rule:nonzero;"/>
    </g>
</svg>
