<?xml version="1.0" encoding="UTF-8" standalone="no"?>
<!DOCTYPE svg PUBLIC "-//W3C//DTD SVG 1.1//EN" "http://www.w3.org/Graphics/SVG/1.1/DTD/svg11.dtd">
<svg width="100%" height="100%" viewBox="0 0 250 250" version="1.1" xmlns="http://www.w3.org/2000/svg" xmlns:xlink="http://www.w3.org/1999/xlink" xml:space="preserve" xmlns:serif="http://www.serif.com/" style="fill-rule:evenodd;clip-rule:evenodd;stroke-linejoin:round;stroke-miterlimit:2;">
    <g id="_-ffffffff" serif:id="#ffffffff">
        <path d="M118.11,56.15C118.97,54.02 120.45,51.5 123.1,51.56C127.03,52.13 130.33,54.54 133.88,56.14C136.58,57.55 140.37,58.89 140.48,62.51C140.77,68.03 140.51,73.58 140.6,79.11C149.81,73.98 161.14,72.33 171.19,75.88C182.38,79.42 190.34,88.84 196.78,98.17C199.51,103.57 204.14,108.53 204.47,114.78C204.9,114.85 205.78,114.99 206.21,115.06C205.57,115.09 204.28,115.14 203.63,115.17C203.67,114.77 203.74,113.96 203.78,113.55C198.7,113.3 193.6,113.12 188.52,113.55C183.68,104.6 177.88,95.14 168.25,90.76C162.3,87.72 155.15,88.55 149.26,91.33C155.38,101.23 158.63,112.6 160.21,124.05C160,124.67 159.57,125.92 159.36,126.54C158.82,126.56 157.75,126.59 157.22,126.6C157.54,127.34 158.19,128.8 158.52,129.54L156.63,127.16L156.31,130.45L154.12,128.2L156.12,131.92L154.19,130.07C154.3,130.68 154.52,131.91 154.63,132.52L153.07,132.28L153.94,133.79L152.41,133.24C152.42,134.08 152.44,135.77 152.45,136.61L150.23,134.33L152.33,138.1L150.61,136.18C150.39,137.04 149.95,138.75 149.72,139.61C148.69,135.54 148.67,131.33 148.23,127.17C146.46,117.47 144.51,107.43 138.85,99.13C135.86,94.13 131.29,89.75 125.55,88.21C118.65,86.29 110.98,88.99 106.23,94.2C101.33,99.12 98.63,105.7 96.37,112.14C90.48,132.15 90.87,153.96 97.13,173.83C100.52,183.42 106.38,194.05 117.16,196.41C127.28,198.7 136.76,191.26 140.74,182.42L141.04,187.78C141.17,184.55 141.65,181.41 142.2,178.25C142.16,182.39 142.56,186.52 142.65,190.66C143.12,190.25 144.05,189.42 144.52,189.01C144.03,189.71 143.07,191.11 142.59,191.82L144.33,191.09C144.4,192.02 144.54,193.87 144.61,194.8L146.42,194.51C145.9,195.05 144.87,196.13 144.36,196.67L146.34,196.2C146.41,197.11 146.56,198.94 146.64,199.85L147.67,199.16C147.62,199.79 147.54,201.06 147.49,201.7L149.96,201.13L146.9,202.83L149.4,202.23C149.48,203.06 149.64,204.7 149.71,205.53C150.5,205.39 152.07,205.11 152.85,204.97L150.03,206.3L152.7,206.53C152.63,206.94 152.48,207.78 152.41,208.19C154.45,208.46 156.26,209.42 157.85,210.69C157.13,210.33 156.43,209.95 155.72,209.56C150.06,210.25 145.02,207.33 139.98,205.29C129.88,210.95 117.14,212.38 106.45,207.52C104.14,206.61 101.63,204.35 99.19,206.2C92.7,209.51 85.29,211.13 78.02,210.13C66.49,209.45 56.68,202.01 49.8,193.18C32.77,173.05 27.05,144.36 34.63,119.15C31.04,116.95 27.67,120.36 23.97,120C17.14,120.07 12.09,114.57 8.95,109.09C1.73,96.85 4.69,79.68 15.96,70.91C20.46,67.47 26.82,67.62 31.63,70.33C32.72,69.83 33.82,69.33 34.91,68.83C36.24,65.85 37,62.54 38.98,59.89C41.61,59.88 43.96,61.55 46.09,62.96C46.57,65.31 46.32,67.73 46.34,70.12C49.97,68.44 54.2,67.58 58.05,69.04C62.14,70.21 64.61,73.88 67.26,76.92C78.25,72.18 91.29,73.29 101.5,79.48C104.3,77.76 107.3,76.4 110.42,75.36C113,68.97 115.54,62.56 118.11,56.15M21.37,74.44C15.93,76.86 13.11,82.64 11.55,88.07C9.18,95.76 11.81,104.18 16.61,110.36C19.24,113.74 23.97,115.36 28,113.6C21.72,101.75 21.74,86.6 28.06,74.77C25.9,74.18 23.54,73.43 21.37,74.44M31.85,77.8C28.3,84.24 27.58,91.86 28.34,99.07C29.11,104.88 31.04,111.15 36.14,114.61C38.75,107.81 42.41,101.49 46.5,95.49C47.57,93.76 49.76,92.35 49.4,90.07C48.71,84.47 47.38,77.98 42.46,74.52C38.77,72.12 33.85,74.18 31.85,77.8M49.65,74.71C51.8,78.47 53.08,82.62 53.8,86.87C56.52,84.21 59.17,81.42 62.46,79.46C60.68,77.61 59.01,75.46 56.52,74.52C54.3,73.65 51.88,74.16 49.65,74.71M67.4,94.34C56.43,103.85 50.08,117.78 47.29,131.83C44.93,142.98 47.03,154.55 50.79,165.15C55.21,176.49 61.91,188.11 73.22,193.69C79.24,196.76 86.29,195.9 92.19,193.01C83.22,178.37 80.25,160.91 79.94,143.97C79.67,125.86 82.7,107.03 92.24,91.35C84.27,87.17 74.17,88.46 67.4,94.34Z" style="fill:white;fill-rule:nonzero;"/>
        <g transform="matrix(0.694385,-0.719604,0.719604,0.694385,-60.0974,194.508)">
            <path d="M190.62,118.76C204.17,116.54 218.7,120.01 229.54,128.53C239.7,136.41 246.77,148.35 248.25,161.17C251.39,181.17 240.71,202.41 222.79,211.85C212.25,217.51 199.59,219.45 187.92,216.62C171.67,213.1 157.63,200.79 152.14,185.08C149.61,177.69 148.17,169.69 149.77,161.93C151.46,140.42 169.54,122.11 190.62,118.76M191.53,143.46C189.7,148.53 191.15,154.36 190.71,159.72C185.34,160.09 179.6,158.74 174.47,160.43C173.56,165.16 174.15,170.09 174.17,174.89C174.41,175.16 174.87,175.7 175.1,175.97C180.23,176.72 185.51,176.11 190.7,176.32C190.9,181.51 190.24,186.78 191.05,191.92C191.3,192.13 191.81,192.56 192.06,192.78C196.94,192.99 201.89,193.22 206.75,192.62C207.77,187.26 207.07,181.76 207.26,176.35C212.63,175.86 218.34,177.24 223.49,175.55C224.41,171.09 223.84,166.43 223.84,161.9C224.04,160.29 222.39,159.64 221.05,159.69C216.45,159.61 211.85,159.74 207.25,159.72C207.25,155.13 207.34,150.53 207.24,145.94C207.27,144.59 206.7,142.89 205.04,143.09C200.57,143.12 195.89,142.48 191.53,143.46Z" style="fill:white;fill-rule:nonzero;"/>
        </g>
    </g>
</svg>
