<?xml version="1.0" encoding="UTF-8" standalone="no"?>
<!DOCTYPE svg PUBLIC "-//W3C//DTD SVG 1.1//EN" "http://www.w3.org/Graphics/SVG/1.1/DTD/svg11.dtd">
<svg width="100%" height="100%" viewBox="0 0 638 582" version="1.1" xmlns="http://www.w3.org/2000/svg" xmlns:xlink="http://www.w3.org/1999/xlink" xml:space="preserve" xmlns:serif="http://www.serif.com/" style="fill-rule:evenodd;clip-rule:evenodd;stroke-linejoin:round;stroke-miterlimit:2;">
    <g transform="matrix(1,0,0,1,-50.6847,18.2945)">
        <path d="M202.93,130.18C245.52,81.91 309.49,53.03 373.96,54.1C442.62,53.46 510.3,86.94 552.33,141.09C579.89,175.87 596.78,218.95 600.34,263.17C600.67,272.85 601.89,282.54 600.78,292.21C598.66,351.67 571.51,409.68 527.57,449.73C498.74,476.65 462.62,495.57 424.22,504.45C419.06,505.53 413.9,506.74 408.63,507.12C408.59,454.06 408.59,401 408.63,347.95C426.29,347.85 443.95,347.96 461.6,347.89C465.2,326.02 468.42,304.09 471.77,282.19C450.72,281.71 429.64,282.36 408.58,281.86C408.68,266.64 408.5,251.42 408.67,236.2C409.22,228.31 411.56,220.15 417.1,214.27C423.16,207.19 432.73,204.39 441.74,203.85C452.66,203.48 463.59,203.82 474.51,203.65C474.72,185.03 474.69,166.39 474.51,147.77C458.46,145.27 442.27,143.41 426.01,143.18C408.18,142.94 389.72,146.08 374.37,155.57C359.26,164.46 348.28,179.41 342.83,195.94C338.51,208.89 337.29,222.66 337.42,236.24C337.42,251.5 337.44,266.76 337.42,282.02C318.15,282.09 298.88,281.95 279.61,282.07C279.59,304.02 279.48,325.98 279.67,347.93C298.91,347.9 318.16,347.88 337.4,347.94C337.44,401.02 337.45,454.1 337.4,507.18C300.17,501.88 264.65,486.18 234.78,463.47C203.68,439.65 178.68,407.84 163.34,371.76C145.31,330.01 140.69,282.83 149.22,238.23C156.97,198.27 175.73,160.47 202.93,130.18" style="fill:white;fill-rule:nonzero;"/>
    </g>
</svg>
