<?xml version="1.0" encoding="UTF-8" standalone="no"?>
<!DOCTYPE svg PUBLIC "-//W3C//DTD SVG 1.1//EN" "http://www.w3.org/Graphics/SVG/1.1/DTD/svg11.dtd">
<svg width="100%" height="100%" viewBox="0 0 250 250" version="1.1" xmlns="http://www.w3.org/2000/svg" xmlns:xlink="http://www.w3.org/1999/xlink" xml:space="preserve" xmlns:serif="http://www.serif.com/" style="fill-rule:evenodd;clip-rule:evenodd;stroke-linejoin:round;stroke-miterlimit:2;">
    <g transform="matrix(1,0,0,1,0,13.57)">
        <path d="M117.85,43.27C118.9,41.06 120.12,38.02 123.03,38.03C126.5,38.53 129.54,40.38 132.62,41.91C135.57,43.69 140.1,44.85 140.4,48.94C140.66,54.46 140.48,60.01 140.6,65.54C148.95,61.25 158.79,59.13 168.02,61.57C176.56,63.16 183.66,68.81 189.32,75.12C195.42,82.2 201.17,90.04 204.05,99.01C198.92,98.99 193.63,98.38 188.65,99.89C183.31,91.03 177.6,81.17 167.6,76.98C161.76,74.28 155.02,75.29 149.27,77.71C155.09,87.75 158.72,98.98 160.11,110.5C160.06,112.18 159.11,113.34 157.35,113.2L158.11,114.34L156.72,113.84L156.15,116.56C155.58,115.8 155.02,115.02 154.47,114.24C154.46,115.63 154.45,117.01 154.44,118.4C152.9,119.16 152.05,120.47 152.38,122.26L151.32,121.74L151.67,123.2L150.56,122.84C150.34,123.61 149.9,125.14 149.68,125.91C148.02,113.14 146.9,99.75 140.4,88.31C137.58,82.98 133.57,77.91 127.87,75.54C120.99,72.58 112.62,74.56 107.32,79.7C101.53,84.82 98.75,92.25 96.21,99.33C90.5,119.33 90.95,141.04 97.4,160.8C100.82,169.94 106.34,180.07 116.57,182.64C126.5,185.3 136.13,178.18 140.41,169.61L141.6,170.4C141.82,168.71 142.08,167.03 142.36,165.35C142.24,169.62 141.97,174.08 143.5,178.16L144.44,177.76C144.45,178.59 144.46,180.23 144.47,181.05L145.78,180.96C145.61,181.46 145.27,182.47 145.1,182.97L146.42,182.86C146.44,183.65 146.49,185.23 146.52,186.02L147.85,185.93C147.7,186.44 147.4,187.46 147.25,187.98L148.78,187.69L148.17,189.13L149.49,188.85C149.52,189.57 149.59,191.01 149.62,191.73C150.26,191.83 151.55,192.04 152.19,192.15C152.3,192.78 152.53,194.04 152.64,194.67C154.37,195.37 156.49,195.51 157.74,197.06C154.23,195.84 150.42,195.97 146.95,194.59C144.61,193.68 142.3,192.68 139.98,191.72C131.85,195.76 122.48,198.08 113.43,196.16C109.72,195.48 106.33,193.8 102.88,192.36C101.14,191.39 99.38,192.66 97.75,193.24C86.88,198.41 73.28,198 63,191.61C53.16,185.2 45.87,175.53 40.38,165.3C30.84,147 29,125.11 34.64,105.33C30.26,104.01 26.16,107.24 21.77,106.23C15.85,104.98 11.49,100.07 8.7,94.97C2.96,84.68 4.19,71.06 11.51,61.86C14.17,58.54 17.66,55.44 22.07,54.97C25.4,54.37 28.7,55.5 31.76,56.73C32.8,56.23 33.83,55.74 34.87,55.26C36.05,52.12 37.43,49.07 39.06,46.15C41.63,46.7 43.94,47.97 46.14,49.36C46.3,51.72 46.39,54.08 46.36,56.44C50.08,55.07 54.24,53.99 58.09,55.53C62.1,56.75 64.6,60.34 67.24,63.33C78.2,58.74 91.22,59.73 101.39,65.87C104.33,64.35 107.32,62.91 110.43,61.76C112.92,55.6 115.32,49.41 117.85,43.27M20.83,61.23C14.36,64.81 11.44,72.46 10.81,79.48C10.53,85.94 13.06,92.33 17.14,97.27C19.74,100.41 24.16,101.24 27.97,100.19C21.86,88.06 21.82,73.2 28.04,61.1C25.68,60.72 23.01,59.75 20.83,61.23M32.22,63.83C29.41,68.51 28.28,74.04 28.13,79.45C27.91,87.26 29.65,95.98 36.11,101.08C39.53,93.03 43.92,85.45 49.03,78.37C49.62,72.43 47.6,65.49 42.91,61.42C39.57,58.66 34.32,60.32 32.22,63.83M49.64,61.05C51.53,64.94 52.98,69.02 53.8,73.28C56.48,70.56 59.38,68.07 62.48,65.84C60.69,64.02 58.88,62.12 56.52,61.04C54.28,60.28 51.91,60.72 49.64,61.05M73.08,77.31C64.66,81.1 59.42,89.27 54.85,96.93C50.18,106.12 46.98,116.18 46.4,126.52C46.24,137.38 48.91,148.2 53.63,157.95C58.06,167.06 64.3,176.06 73.84,180.31C79.69,183.06 86.47,182.03 92.19,179.46C80.94,160.26 78.82,137.13 80.61,115.35C81.95,102.18 85.39,89.11 92.26,77.69C86.27,74.87 79.18,74.81 73.08,77.31M182.62,117.62C182.96,112.03 187.2,106.67 193,106.25C199.62,105.37 205.53,111.14 205.78,117.62C210.87,117.7 215.98,117.42 221.06,117.81C225.39,118.05 228.76,122.22 228.68,126.45C228.77,146.79 228.69,167.14 228.73,187.48C228.78,190.36 228.33,193.55 226.12,195.62C223.76,198.05 220.13,198.19 216.97,198.2C200.73,198.12 184.48,198.29 168.24,198.12C163.61,198.13 159.45,194.06 159.69,189.36C159.65,168.4 159.62,147.44 159.7,126.48C159.55,121.98 163.38,117.72 167.94,117.73C172.83,117.45 177.73,117.7 182.62,117.62M192.33,113.92C189.73,115.13 189.09,119.14 191.48,120.9C194.01,123.36 198.9,120.94 198.36,117.45C198.35,114.62 194.83,112.19 192.33,113.92M174.59,140.1C171.75,141.57 172.23,146.15 175.05,147.36C177.75,148.78 181.43,146.51 181.16,143.42C181.29,140.24 177.08,137.98 174.59,140.1M189.21,140.84C187.83,142.32 188.64,144.49 188.83,146.25C197.23,146.58 205.64,146.34 214.04,146.41C215.28,146.43 217.41,146.41 217.2,144.58C217.09,143.38 217.68,140.74 215.81,140.75C206.95,140.65 198.06,140.47 189.21,140.84M175.4,156.87C172.64,157.78 171.74,161.61 173.78,163.65C175.76,165.88 179.94,165.26 180.88,162.33C182.41,159.11 178.6,155.28 175.4,156.87M188.83,158.33C188.2,160 188.57,161.8 188.68,163.53C198.03,163.55 207.47,164.06 216.77,163.29C217.31,161.65 217.98,158.37 215.62,157.99C208.4,157.76 201.17,158 193.95,157.89C192.25,157.97 190.45,157.66 188.83,158.33M174.29,174.76C171.9,176.37 172.23,180.46 174.81,181.72C177.66,183.61 181.93,180.72 181.11,177.35C180.78,174.28 176.58,172.66 174.29,174.76M188.68,175.32C188.54,177.08 188.49,178.85 188.54,180.63C198.04,181.17 207.63,181.07 217.15,180.68C217.14,178.99 217.37,177.27 216.86,175.64C214.98,174.96 212.95,175.23 211.01,175.17C203.57,175.27 196.12,175.03 188.68,175.32" style="fill:white;fill-rule:nonzero;"/>
    </g>
</svg>
