<?xml version="1.0" encoding="UTF-8" standalone="no"?>
<!DOCTYPE svg PUBLIC "-//W3C//DTD SVG 1.1//EN" "http://www.w3.org/Graphics/SVG/1.1/DTD/svg11.dtd">
<svg width="100%" height="100%" viewBox="0 0 250 250" version="1.1" xmlns="http://www.w3.org/2000/svg" xmlns:xlink="http://www.w3.org/1999/xlink" xml:space="preserve" xmlns:serif="http://www.serif.com/" style="fill-rule:evenodd;clip-rule:evenodd;stroke-linejoin:round;stroke-miterlimit:2;">
    <g transform="matrix(1,0,0,1,0,-2.68)">
        <path d="M118.59,43.49C138.57,40 159.79,53.24 165.39,72.75C168.54,82.43 167.83,93.21 163.65,102.46C158.65,114 148.06,122.8 135.97,126.05C126.75,128.72 116.64,127.77 107.9,123.88C96.96,119.07 88.19,109.42 84.75,97.94C81.9,88.91 82.08,78.87 85.6,70.05C90.73,56.11 103.89,45.54 118.59,43.49M32.46,68.39C45.73,63.41 61.47,73 63.89,86.77C66.85,100.05 56.26,113.95 42.85,115.22C30,117.11 17.22,106.54 16.1,93.72C14.8,82.8 22.18,71.91 32.46,68.39M178.5,121.92C179.25,116.87 182.55,111.65 187.94,110.83C194.75,108.95 201.34,115.27 201.87,121.86C207.4,122.15 213.01,121.57 218.49,122.41C222.95,123.5 225.07,128.4 224.69,132.67C224.68,152.02 224.73,171.37 224.72,190.72C224.58,193.85 224.64,197.51 222.11,199.79C219.53,202.5 215.5,202.29 212.05,202.44C196.39,202.43 180.72,202.42 165.06,202.36C161.3,202.45 157.49,200.25 156.24,196.61C155.52,194.03 155.7,191.33 155.68,188.69C155.74,169.39 155.61,150.08 155.75,130.78C155.67,126.62 158.9,122.58 163.12,122.15C168.23,121.74 173.38,121.96 178.5,121.92M189.23,117.87C186.46,118.53 184.99,122.31 186.95,124.51C188.87,127.2 193.79,126.07 194.17,122.75C194.99,119.99 191.99,116.94 189.23,117.87M172.09,143.74C169.58,144.28 167.89,147.18 169.17,149.56C170.5,153.06 176.32,152.47 176.95,148.78C177.83,145.98 174.9,142.94 172.09,143.74M185.04,145.07C184.38,146.95 183.53,151.39 186.9,150.52C194.98,150.47 203.07,150.78 211.14,150.54C213.93,150.81 213.61,146.69 212.5,145.19C203.37,144.58 194.19,145.03 185.04,145.07M168.8,165.79C169.26,169.36 174.77,170.47 176.45,167.23C178.19,164.71 176.24,161.8 173.82,160.72C171.1,160.73 168.14,162.73 168.8,165.79M184.73,162.49C184.61,164.25 184.56,166.01 184.59,167.77C194.01,168 203.43,167.93 212.84,167.53C212.86,165.99 213.67,164.27 212.74,162.87C211.37,161.82 209.54,162.37 207.95,162.21C200.22,162.39 192.45,161.73 184.73,162.49M170.33,179.03C168.27,180.53 168.18,183.99 170.27,185.51C172.6,187.62 176.95,185.89 177.03,182.71C177.63,179.23 172.98,176.71 170.33,179.03M184.68,179.57C184.63,181.34 184.59,183.1 184.54,184.87C194.1,185.25 203.66,185.28 213.22,184.92C213.15,183.22 213.05,181.53 212.92,179.84C203.55,178.91 194.09,179.75 184.68,179.57M4.09,149.68C4.78,138.02 15.41,128.11 27,127.8C33.67,127.65 40.34,127.76 47.01,127.68C55.02,127.05 63.33,129.13 69.33,134.67C54.18,143.24 43.25,158.9 40.9,176.2C32.62,176.15 24.35,176.18 16.07,176.09C10.27,176.12 4.81,171.56 4.13,165.75C3.59,160.42 3.58,155.01 4.09,149.68M53.85,172.52C58.63,152.34 79.87,137.28 100.53,140.41C113.24,145.91 127.61,147.04 141.01,143.54C134.58,161.9 136.72,183.6 148.94,199.12C150.28,199.5 151.61,199.92 152.89,200.48C151.93,200.38 150.02,200.17 149.06,200.06C153.17,204.34 157.09,208.82 161.78,212.51C131.49,212.49 101.19,212.54 70.9,212.49C62.22,212.68 53.74,205.94 52.67,197.2C51.98,188.98 51.93,180.59 53.85,172.52" style="fill:white;fill-rule:nonzero;"/>
    </g>
</svg>
