<?xml version="1.0" encoding="UTF-8" standalone="no"?>
<!DOCTYPE svg PUBLIC "-//W3C//DTD SVG 1.1//EN" "http://www.w3.org/Graphics/SVG/1.1/DTD/svg11.dtd">
<svg width="100%" height="100%" viewBox="0 0 250 250" version="1.1" xmlns="http://www.w3.org/2000/svg" xmlns:xlink="http://www.w3.org/1999/xlink" xml:space="preserve" xmlns:serif="http://www.serif.com/" style="fill-rule:evenodd;clip-rule:evenodd;stroke-linejoin:round;stroke-miterlimit:2;">
    <g transform="matrix(1,0,0,1,0,15.61)">
        <path d="M119.62,37.96C122.13,34.14 126.87,37.09 129.96,38.51C133.44,40.79 138.76,41.67 140.24,46.01C140.85,51.8 140.39,57.68 140.61,63.5C151.68,57.47 165.67,56.67 176.9,62.74C185.75,67.92 192.51,75.97 197.96,84.53C200.64,89.09 203.82,93.62 204.43,99.03C204.79,99.15 205.51,99.39 205.87,99.51C205.33,99.52 204.25,99.54 203.71,99.55C203.7,99.14 203.68,98.32 203.67,97.92C198.62,97.69 193.56,97.68 188.5,97.94C183.59,89.08 177.82,79.68 168.3,75.24C162.31,72.24 155.21,73.07 149.26,75.71C155.15,85.7 158.69,96.96 160.12,108.44C160.04,110.09 159.17,111.39 157.35,111.15L158,113.46L156.59,111.58C156.5,112.4 156.32,114.04 156.23,114.87C155.77,114.22 154.86,112.94 154.41,112.3C154.73,113.89 154.74,115.49 154.41,117.11L153.03,116.63L153.73,118.23L151.94,117.85C152.2,118.4 152.72,119.51 152.98,120.06L151.41,119.66L151.72,120.99L150.51,120.83C150.25,121.89 149.99,122.95 149.73,124C147.97,110.93 146.87,97.16 139.98,85.54C136.7,79.38 131.31,73.59 124.13,72.42C117.09,71.02 109.81,74.34 105.29,79.71C100.89,84.44 98.72,90.64 96.44,96.55C90.47,116.75 90.89,138.77 97.4,158.78C100.84,167.92 106.36,178.05 116.59,180.6C126.68,183.26 136.57,175.92 140.59,167.02L141.21,170.91C141.52,168.18 141.84,165.47 142.18,162.74C142.35,166.54 142.52,170.35 142.56,174.15L143.9,174.23C143.6,174.68 143,175.58 142.7,176.03L144.37,175.56C144.42,176.43 144.5,178.17 144.55,179.05L146.07,179C145.74,179.47 145.09,180.4 144.76,180.86L146.42,180.72C146.45,181.54 146.51,183.17 146.55,183.99L147.79,183.81C147.69,184.34 147.49,185.41 147.39,185.94C147.86,185.94 148.78,185.95 149.25,185.95C149.41,187.25 149.57,188.56 149.73,189.86C150.23,189.82 151.23,189.73 151.73,189.69L151.13,191.11L152.33,190.72C152.04,193.35 155.12,193.18 156.81,194.02C150.82,194.54 145.32,192 139.98,189.68C131.86,193.72 122.52,196.03 113.49,194.13C109.78,193.46 106.39,191.79 102.95,190.34C100.94,189.27 98.97,190.84 97.11,191.48C88.86,195.34 79.2,195.62 70.53,193.06C64.81,191.36 60,187.69 55.57,183.83C45.5,173.81 37.85,161.23 34.29,147.43C30.26,133.08 30.65,117.7 34.64,103.38C30.29,101.83 26.15,105.28 21.75,104.18C15.58,102.86 11.11,97.63 8.35,92.23C1.98,80.19 5.15,63.79 15.99,55.38C20.5,51.91 26.76,52.26 31.67,54.69C32.74,54.2 33.81,53.71 34.88,53.22C36.03,50.09 37.42,47.06 39.03,44.14C41.63,44.61 43.94,45.92 46.14,47.33C46.3,49.69 46.39,52.06 46.37,54.43C50.05,53.01 54.2,51.96 58.04,53.48C62.08,54.68 64.59,58.29 67.25,61.29C78.26,56.64 91.28,57.78 101.52,63.84C104.37,62.23 107.35,60.86 110.42,59.73C113.58,52.52 115.8,44.86 119.62,37.96M21.4,58.88C15.85,61.57 12.77,67.5 11.44,73.27C9.49,80.98 12.18,89.23 17.14,95.23C19.75,98.36 24.18,99.26 27.99,98.1C21.84,86.03 21.8,71.13 28.06,59.1C25.89,58.75 23.52,57.8 21.4,58.88M32.24,61.74C28.91,67.3 27.91,73.97 28.16,80.36C28.39,87.24 30.44,94.64 36.13,99C39.32,91.72 43.02,84.64 47.78,78.24C48.53,77.12 49.64,75.97 49.34,74.5C48.76,68.86 47.25,62.62 42.47,59.03C39.07,56.77 34.29,58.43 32.24,61.74M49.64,59.05C51.56,62.92 52.98,67 53.8,71.25C56.47,68.52 59.37,66.04 62.47,63.81C60.69,61.98 58.88,60.07 56.51,59C54.27,58.24 51.9,58.66 49.64,59.05M75.19,74.57C69.23,76.09 64.9,80.83 61.08,85.36C48.9,101.46 42.84,123.15 48.77,142.9C52.71,156.26 59.43,170.27 72.03,177.4C78.21,181.02 85.89,180.36 92.18,177.41C81.78,159.71 79.21,138.51 80.27,118.31C81.12,103.48 84.5,88.52 92.25,75.69C86.98,73.17 80.74,72.72 75.19,74.57M183.42,105.68C185.49,104.03 188.42,104.25 190.92,103.83C196.25,103.56 202.01,103.35 206.99,105.41C208.49,108.83 207.34,112.91 207.69,116.58C211.93,118.3 215.91,120.56 219.53,123.37C222.39,121.79 225.08,119.86 228.09,118.55C229.41,117.77 230.6,119.13 231.4,120.01C235.84,125.02 239.26,131 241.19,137.42C241.14,137.88 241.03,138.8 240.98,139.25C238.36,141.65 234.95,142.97 231.95,144.84C232.55,149.38 232.58,153.96 231.94,158.5C234.98,160.55 238.82,161.69 241.23,164.5C240.42,170.51 236.87,175.94 233.35,180.79C232.06,182.36 231.08,184.54 228.95,185.1C225.6,183.83 222.68,181.69 219.55,179.99C215.92,182.78 211.95,185.07 207.69,186.77C207.51,190.39 208.16,194.11 207.29,197.66C205.27,199.3 202.46,199.09 200.02,199.37C194.57,199.65 188.61,200.25 183.56,197.81C182.18,194.34 183.19,190.41 182.9,186.76C178.66,185.07 174.71,182.79 171.12,179.98C168.09,181.75 165.09,183.59 161.88,185.04C158.38,183.39 156.71,179.74 154.51,176.79C152.21,173.02 149.49,168.79 149.56,164.32C152.03,161.69 155.66,160.5 158.64,158.51C158,153.98 157.99,149.39 158.65,144.86C155.65,142.95 152.26,141.59 149.58,139.22C149.55,138.75 149.51,137.81 149.49,137.34C151.66,131.44 154.25,125.57 158.5,120.85C159.59,119.71 160.92,117.52 162.78,118.62C165.68,119.99 168.33,121.81 171.13,123.38C174.73,120.57 178.68,118.28 182.91,116.57C183.12,112.96 182.39,109.19 183.42,105.68M192.25,136.57C186.21,137.8 181.06,143.12 180.2,149.26C178.48,157.37 184.9,165.87 193.05,166.82C202.11,168.57 211.35,160.53 210.78,151.3C210.88,142.01 201.26,134.49 192.25,136.57" style="fill:white;fill-rule:nonzero;"/>
    </g>
</svg>
