<?xml version="1.0" encoding="UTF-8" standalone="no"?>
<!DOCTYPE svg PUBLIC "-//W3C//DTD SVG 1.1//EN" "http://www.w3.org/Graphics/SVG/1.1/DTD/svg11.dtd">
<svg width="100%" height="100%" viewBox="0 0 250 250" version="1.1" xmlns="http://www.w3.org/2000/svg" xmlns:xlink="http://www.w3.org/1999/xlink" xml:space="preserve" xmlns:serif="http://www.serif.com/" style="fill-rule:evenodd;clip-rule:evenodd;stroke-linejoin:round;stroke-miterlimit:2;">
    <g transform="matrix(0.299705,0,0,0.299705,-2.37864,24.92)">
        <path d="M364.7,66.84C392.83,54.41 425.01,51.16 454.98,58.27C479.78,63.9 502.88,76.46 521.4,93.84C544.5,115.32 560.02,144.79 564.6,176C568.06,196.9 566.43,218.53 560.46,238.83C558.35,246.04 555.09,252.81 552.31,259.77C550.77,260.3 549.12,261.92 547.56,260.6C541.63,257.38 536.01,253.42 529.47,251.51C516.35,246.91 501.3,248.52 489.25,255.36C480.27,260 473.86,268.04 467.51,275.64C458.63,287.37 449.93,299.35 443.17,312.46C438.13,321.56 434.16,331.19 430.34,340.85C424.28,342.16 418.09,341.39 411.98,341.14C379.35,338.7 347.62,324.81 324.06,302.05C304.06,282.86 289.59,257.89 283.27,230.88C275.78,200.47 279.26,167.69 292,139.17C301.85,117.56 316.73,98.17 335.8,83.92C344.61,76.95 354.67,71.8 364.7,66.84M127.57,136.96C144.96,135.2 162.99,139.12 177.92,148.29C190.53,155.56 200.49,166.8 207.83,179.25C212.65,189.06 216.54,199.55 217.47,210.51C218.04,220.46 217.89,230.65 214.81,240.21C212.16,248.59 209.01,256.96 203.89,264.17C199.93,269.77 195.53,275.1 190.51,279.79C178.76,289.97 164.24,297.07 148.84,299.45C126.99,303.2 103.72,297.4 86.12,283.94C69.92,271.24 57.98,252.7 54.76,232.23C52.75,218.58 53.58,204.37 58.28,191.33C62.31,179.61 69.36,169.08 78.11,160.35C91.01,146.84 109.12,138.9 127.57,136.96M606.29,235.51C634.02,229.11 663.15,229.43 690.91,235.51C694.25,236.22 697.18,238.81 697.85,242.22C698.46,245.51 698.19,248.87 698.23,252.19C698.24,262.44 698.32,272.69 698.24,282.94C715.51,289.06 731.59,298.44 745.67,310.15C756.57,304.07 767.24,297.58 778.04,291.33C781.4,289.28 786.04,289.34 789.11,291.94C808.92,312.39 823.47,337.64 832.39,364.62C833.37,368.05 833.75,372.4 831.08,375.2C829.19,377.43 826.49,378.69 824.02,380.12C814.5,385.54 805.02,391.03 795.49,396.42C798.83,414.47 798.69,433.09 795.5,451.15C805.75,457.14 816.06,463 826.42,468.8C829.3,470.35 832.35,472.62 832.94,476.07C833.79,480.7 831.69,485.07 830.25,489.34C821.8,511.73 809.65,532.84 793.68,550.73C791.21,553.45 788.89,556.94 784.97,557.54C782.01,558.31 779.25,556.7 776.79,555.3C766.49,549.24 756.06,543.41 745.74,537.4C731.71,549.28 715.45,558.28 698.22,564.6C698.19,577.14 698.31,589.68 698.25,602.21C698.39,606.16 696.16,610.55 692.12,611.58C688.16,612.69 684.12,613.5 680.08,614.24C655.54,617.76 630.23,617.74 606.04,611.87C601.19,611 598.48,605.77 598.72,601.17C598.72,588.97 598.8,576.78 598.78,564.59C581.61,558.32 565.38,549.27 551.5,537.34C542.03,543.09 532.33,548.42 522.77,553.98C519.23,555.96 515.3,558.91 511.04,557.28C507.22,555.73 504.79,552.13 502.08,549.2C485.3,529.23 471.76,506.22 464.33,481.12C463.4,477.21 464.5,472.47 468.22,470.39C479.22,463.81 490.48,457.66 501.51,451.13C499.92,439.56 498.52,427.85 499.39,416.15C499.6,409.53 500.66,402.98 501.51,396.42C490.52,390.19 479.56,383.9 468.68,377.47C464.48,375.27 463.12,369.94 464.57,365.64C472.27,341.21 484.77,318.19 501.72,298.93C504.06,296.22 506.25,293.3 509.18,291.19C512.31,289.09 516.48,289.67 519.58,291.53C530.26,297.7 540.89,303.94 551.51,310.22C565.49,298.47 581.54,289.05 598.77,282.92C598.69,270.32 598.71,257.72 598.83,245.13C598.85,240.72 601.89,236.45 606.29,235.51M636.47,362.91C621.37,365.65 607.97,374.83 598.7,386.89C591.08,397.38 586.47,410.23 586.53,423.26C586.16,442.29 595.6,460.92 610.44,472.66C631.77,490.19 665.32,490.28 686.76,472.9C699.91,462.63 709.04,446.96 710.49,430.24C712.36,413.71 707.02,396.57 696.42,383.79C689.12,375.69 680.09,369.03 669.79,365.29C659.16,361.55 647.51,360.65 636.47,362.91M56.88,351.04C69.15,344.53 83.11,341.66 96.94,341.68C123.59,341.71 150.23,341.62 176.88,341.72C198.22,341.91 219.46,350.37 234.57,365.55C201.74,383.75 174.11,411.58 157.07,445.11C147.45,464.14 140.96,484.77 138.33,505.94C110.22,505.86 82.11,506.03 54.01,505.87C39.04,505.72 24.04,497.44 17.37,483.79C10.97,472.28 13.21,458.75 12.8,446.17C13.22,431.45 11.37,416.37 15.58,402.04C21.56,380.37 36.75,361.2 56.88,351.04M261.03,397.35C284.03,386.05 310.01,381.5 335.5,382.9C347.92,388.19 360.33,393.8 373.59,396.71C393.79,402.09 414.92,404.42 435.78,402.43C441.89,409.65 450.25,414.31 458.53,418.6C458.48,421.99 458.5,425.39 458.57,428.78C445.65,434.95 433.8,444.5 427.46,457.59C422.84,466.46 421.86,476.92 423.8,486.66C425.78,496.97 430.09,506.62 433.78,516.39C442.56,535.95 453.49,554.62 467.14,571.21C472.46,577.43 477.55,583.98 484.15,588.94C494.39,596.36 507.4,599.85 519.98,598.32C530.77,597.42 540.06,591.35 549.23,586.15C552.14,587.84 555.06,589.53 558,591.2C558.09,599.82 557.36,608.72 560.21,617.01C561.72,621.18 563.84,625.09 565.89,629.01C456.57,628.8 347.25,629.02 237.92,628.9C223.9,628.88 210.03,623.85 199.26,614.88C187.85,605.98 180.35,592.53 177.76,578.38C176.26,570.75 176.86,562.93 176.74,555.2C176.89,537.81 176,520.25 179.39,503.08C183.12,484.75 189.85,466.88 200.01,451.12C214.62,427.81 236.11,408.96 261.03,397.35" style="fill:white;fill-rule:nonzero;"/>
    </g>
</svg>
