<?xml version="1.0" encoding="UTF-8" standalone="no"?>
<!DOCTYPE svg PUBLIC "-//W3C//DTD SVG 1.1//EN" "http://www.w3.org/Graphics/SVG/1.1/DTD/svg11.dtd">
<svg width="100%" height="100%" viewBox="0 0 925 772" version="1.1" xmlns="http://www.w3.org/2000/svg" xmlns:xlink="http://www.w3.org/1999/xlink" xml:space="preserve" xmlns:serif="http://www.serif.com/" style="fill-rule:evenodd;clip-rule:evenodd;stroke-linejoin:round;stroke-miterlimit:2;">
    <g transform="matrix(1.08949,0,0,1.32014,-5.26546,-66.4574)">
        <path d="M420.36,94.67C463.92,93.72 507.58,100.28 549.12,113.34C589.04,125.98 626.91,145 661.03,169.25C692.97,191.68 721.33,219.04 745.86,249.36C763.74,271.55 779.1,295.69 792.35,320.91C798.46,332.62 798.83,347.18 793.13,359.12C758.66,426.29 706.51,484.66 642.37,524.72C606.4,547.75 566.57,564.69 525.13,574.99C502.55,581.14 479.25,584.01 455.99,586.09C431.67,587.57 407.17,587.45 382.97,584.36C318.29,577.49 255.8,553.6 201.93,517.34C163.58,491.17 129.64,458.58 101.78,421.44C87.37,402.32 74.81,381.85 63.65,360.68C57.14,348.21 57.24,332.63 63.94,320.26C74.6,300.38 86.43,281.1 99.72,262.87C111.74,246.78 124.73,231.41 138.76,217.05C155.31,200.8 172.7,185.36 191.55,171.81C202.61,163.27 214.72,156.23 226.66,149C243.75,138.73 261.86,130.23 280.39,122.89C304.84,112.79 330.56,106.12 356.46,100.92C377.58,97.44 398.93,94.91 420.36,94.67M409.49,157.07C390.42,159.02 371.8,164.18 354.1,171.43C331.07,181.76 309.86,196.43 293,215.28C283.6,224.79 275.59,235.66 268.86,247.21C241.64,292.63 236.1,350.05 253.08,400.08C267.39,442.58 297.99,479.16 336.87,501.38C354.85,511.67 374.63,518.82 395.02,522.46C436.9,529.96 481.38,522.84 518.43,501.78C550.32,483.8 576.86,456.22 593.11,423.37C604.02,402.28 609.78,378.83 611.95,355.28C615.59,312.74 603.57,269.19 578.88,234.4C556.29,202.94 524.1,177.96 487.1,165.99C462.28,157.32 435.62,154.64 409.49,157.07M395.39,222.51C431.86,211.86 473.14,219.68 503.06,243.11C517.12,254.18 529.08,268.08 537.25,284.04C543.24,295.41 546.99,307.84 549.54,320.4C552.27,338.66 551.61,357.65 545.96,375.32C540.44,394.49 529.81,411.98 516.13,426.4C503.65,438.99 488.46,448.9 471.9,455.23C455.17,461.96 436.82,464.11 418.9,463C379.97,460.33 343.1,437.63 323.27,404.01C305.81,375.79 301.14,340.27 309.71,308.3C321.03,316.49 335.08,321.05 349.1,320.16C370.88,319.36 391.5,305.74 401.03,286.2C411.27,266.12 409.14,240.43 395.39,222.51" style="fill:rgb(86,118,97);fill-rule:nonzero;"/>
    </g>
</svg>
