<?xml version="1.0" encoding="UTF-8" standalone="no"?>
<!DOCTYPE svg PUBLIC "-//W3C//DTD SVG 1.1//EN" "http://www.w3.org/Graphics/SVG/1.1/DTD/svg11.dtd">
<svg width="100%" height="100%" viewBox="0 0 250 250" version="1.1" xmlns="http://www.w3.org/2000/svg" xmlns:xlink="http://www.w3.org/1999/xlink" xml:space="preserve" xmlns:serif="http://www.serif.com/" style="fill-rule:evenodd;clip-rule:evenodd;stroke-linejoin:round;stroke-miterlimit:2;">
    <g transform="matrix(0.295479,0,0,0.295479,-3.79299,10.6147)">
        <path d="M425.33,100.26C428.9,100.13 432.48,99.9 436.06,99.88C440.55,99.98 445.03,100.42 449.52,100.39C458.91,101.64 468.22,103.33 477.33,105.96C491.69,110.2 505.33,116.75 517.61,125.32C524.23,130.14 530.7,135.19 536.55,140.94C544.83,149.53 552.6,158.71 558.65,169.03C561.23,173.16 563.52,177.46 565.56,181.88C571.91,195 576.26,209.1 578.18,223.56C580.08,236.46 580.13,249.67 578.26,262.56C576.43,277.11 572.15,291.31 565.78,304.5C563.65,309.17 561.26,313.71 558.53,318.05C552.7,328.02 545.15,336.82 537.29,345.22C531.22,351.06 524.74,356.46 517.87,361.34C505.41,370.14 491.49,376.8 476.84,381.03C466.29,384 455.46,386.07 444.51,386.73C441.68,386.73 438.86,386.9 436.05,386.96C434.18,386.96 432.32,386.91 430.47,386.88C418.55,386.25 406.66,384.55 395.23,381.04C380.87,376.64 367.12,370.21 354.64,361.86C347.55,356.86 341.08,351.1 334.73,345.22C326.6,337.38 319.71,328.35 313.84,318.72C310.86,313.93 308.08,309.02 305.83,303.84C299.68,291.21 296.03,277.52 293.95,263.66C291.82,250.1 291.86,236.19 293.95,222.64C295.97,208.49 300.22,194.67 306.47,181.82C308.58,177.14 311.1,172.67 313.79,168.31C319.88,158.35 327.19,149.11 335.52,140.92C341.54,135.28 347.84,129.93 354.6,125.18C366.97,116.57 380.72,110.02 395.19,105.81C405.03,103.02 415.13,101.12 425.33,100.26M139.48,182.33C142.63,182.21 145.78,181.94 148.93,181.89C151.81,181.92 154.68,182.13 157.55,182.27C168.81,183.82 179.93,187.04 189.71,192.95C202.32,199.82 212.31,210.65 219.76,222.8C225.06,232.46 228.73,243.07 230.4,253.97C230.55,257.17 230.71,260.38 230.72,263.59C230.71,267.42 230.46,271.25 230.23,275.08C228.42,285.61 224.85,295.9 219.66,305.24C212.19,317.35 202.23,328.17 189.61,334.98C179.58,341.07 168.12,344.23 156.55,345.7C154.01,345.73 151.47,345.89 148.93,345.97C144.43,346.05 139.97,345.47 135.52,344.97C125.96,343.25 116.65,340.09 108.19,335.29C95.26,328.15 84.9,316.99 77.35,304.41C72.48,296 69.29,286.68 67.64,277.12C67.27,274.7 66.96,272.26 66.84,269.81C66.74,265.18 66.92,260.56 66.9,255.93C68.3,244.41 71.65,233.02 77.62,223.01C85.23,210.43 95.67,199.35 108.68,192.3C118.16,186.94 128.73,183.82 139.48,182.33M675.51,346.3C677.96,346.19 680.41,346.06 682.87,346.13C686.09,346.24 689.31,346.46 692.54,346.42C702.8,347.07 713.05,348.61 722.99,351.29C737.32,354.69 751.07,360.39 763.8,367.79C773.62,373.62 783.09,380.14 791.53,387.86C796.2,391.96 800.52,396.43 804.63,401.09C812.48,409.38 818.84,418.96 824.57,428.79C831.99,441.81 837.92,455.75 841.31,470.37C851.78,511.1 845.55,555.82 824.33,592.13C818.54,601.93 812.07,611.42 804.23,619.71C800.19,624.36 795.87,628.75 791.22,632.78C782.73,640.48 773.24,647.03 763.37,652.83C750.63,660.14 736.92,665.83 722.6,669.19C714.11,671.57 705.34,672.67 696.62,673.76C691.76,673.88 686.91,674.22 682.05,674.25C676.84,674.15 671.65,673.64 666.44,673.72C657.84,672.35 649.15,671.36 640.75,668.95C626.53,665.38 612.82,659.75 600.21,652.27C590.79,646.71 581.75,640.41 573.64,633.06C568.69,628.59 563.82,624.03 559.43,619.01C552.17,610.77 545.51,601.94 540.2,592.31C532.96,579.55 527.09,565.91 523.62,551.63C521.16,543.26 520.19,534.58 518.83,526C518.85,520.83 518.2,515.68 518.08,510.51C518.31,482.15 525.46,453.78 539.68,429.16C545.1,418.99 552.01,409.7 559.67,401.11C563.97,396.18 568.75,391.71 573.62,387.34C581.77,379.96 590.83,373.61 600.32,368.05C613.21,360.45 627.21,354.7 641.77,351.18C652.78,348.31 664.14,346.69 675.51,346.3M655.04,435.49C654.93,446.82 655.04,458.16 655,469.49C655,474.01 654.94,478.53 655.08,483.05C645.08,482.39 635.04,483.01 625.03,482.81C618.75,482.91 612.46,482.59 606.2,482.95C602.46,483.12 600.01,487.04 600.25,490.54C600.38,504.31 599.89,518.1 600.45,531.86L600.36,532.73C601.87,535.03 603.73,537.75 606.89,537.47C618.28,537.69 629.69,537.49 641.09,537.56L655,537.56L655,551.43C655.02,562.47 654.96,573.51 655.02,584.55C654.74,587.91 657.11,591.84 660.68,592.06C674.46,592.7 688.28,592.17 702.07,592.3C705.91,592.68 709.53,589.42 709.42,585.53C709.62,574.2 709.44,562.86 709.49,551.54C709.49,546.91 709.53,542.28 709.42,537.66C713.97,537.49 718.52,537.56 723.08,537.56C734.42,537.52 745.76,537.63 757.1,537.52C760.92,537.82 764.38,534.39 764.2,530.56C764.39,523.61 764.21,516.65 764.25,509.69C764.15,502.99 764.4,496.28 764.16,489.58C764.27,485.76 760.74,482.52 756.97,482.84C741.11,482.87 725.24,482.62 709.4,483.02C709.65,478.25 709.43,473.47 709.5,468.69C709.45,457.64 709.56,446.59 709.46,435.54C709.7,431.82 706.86,428.06 702.94,428.16C695.99,427.93 689.02,428.17 682.07,428.07C675.08,428.12 668.09,427.84 661.12,428.18C657.44,428.26 654.87,432.03 655.04,435.49M93.61,388.38C98.37,387.66 103.17,387.24 107.98,387.09C121.63,386.99 135.27,387.06 148.92,387.06C162.57,387.12 176.21,387 189.86,387.11C191.41,387.15 192.97,387.19 194.53,387.22C207.2,387.99 219.59,391.78 230.63,397.97C236.76,401.53 242.26,406.04 247.5,410.78C241.87,414.3 236.12,417.64 230.7,421.47C227.99,423.35 225.36,425.33 222.73,427.31C210.24,436.68 199.34,448.06 189.54,460.18C187.24,463.14 184.96,466.12 182.81,469.2C174.23,482.1 166.8,495.8 161.48,510.38C156.45,523.55 153.1,537.36 151.31,551.33C150.72,551.33 149.54,551.31 148.95,551.3C135.28,551.29 121.62,551.29 107.95,551.31C94.28,551.26 80.6,551.45 66.93,551.22C65.11,551.11 63.29,550.94 61.47,550.82C49.24,549.19 37.61,542.01 31.46,531.2C26.99,523.85 25.48,515.1 25.47,506.6C25.5,495.25 25.49,483.89 25.48,472.53C25.32,457.33 28.6,441.92 36.35,428.74C43.65,416.03 54.23,405.14 67.02,397.93C75.27,393.27 84.27,389.99 93.61,388.38M330.33,428.3C336.4,428.14 342.47,427.87 348.54,428.16C350.1,428.83 351.63,429.56 353.18,430.28C366.47,436.55 380.52,441.05 394.88,444.11C408.35,447.24 422.2,448.64 436.02,448.51C449.79,448.48 463.53,446.89 476.99,443.98C481.38,443.02 485.73,441.88 490.06,440.71C486.83,450.12 483.59,459.54 481.68,469.33C479.04,481.45 477.62,493.82 477.22,506.21C476.8,521.41 478.23,536.67 481.41,551.54C484.11,565.73 489.01,579.4 494.71,592.65C500.63,606.67 508.73,619.65 517.75,631.87C518.27,632.57 518.81,633.26 519.35,633.96C530.87,648.48 543.86,661.9 558.79,672.94C559.23,673.25 560.11,673.88 560.55,674.19C560.19,674.19 559.47,674.2 559.11,674.21C545.42,674.47 531.72,674.26 518.03,674.31C504.37,674.29 490.7,674.29 477.04,674.31C463.35,674.33 449.66,674.33 435.98,674.31C422.32,674.29 408.67,674.29 395.02,674.31C381.33,674.33 367.65,674.33 353.97,674.31C340.3,674.29 326.64,674.29 312.98,674.31C299.3,674.33 285.62,674.33 271.94,674.31C257.61,674.07 242.75,675.68 229.11,670.21C216.37,664.88 204.67,655.85 198.06,643.53C192.31,633.95 189.68,622.69 189.76,611.58C189.75,598.8 189.81,586.02 189.76,573.24C190.27,551.82 195.41,530.55 204.79,511.27C218.89,481.81 243.25,457.44 272.69,443.29C285.64,436.92 299.53,432.39 313.78,430.07C319.26,429.22 324.78,428.57 330.33,428.3" style="fill:white;fill-rule:nonzero;"/>
    </g>
</svg>
