<?xml version="1.0" encoding="UTF-8" ?>
<!DOCTYPE svg PUBLIC "-//W3C//DTD SVG 1.1//EN" "http://www.w3.org/Graphics/SVG/1.1/DTD/svg11.dtd">
<svg width="250pt" height="250pt" viewBox="0 0 250 250" version="1.1" xmlns="http://www.w3.org/2000/svg">
<g id="#ffffffff">
<path fill="#ffffff" opacity="1.00" d=" M 118.11 56.15 C 118.97 54.02 120.45 51.50 123.10 51.56 C 127.03 52.13 130.33 54.54 133.88 56.14 C 136.58 57.55 140.37 58.89 140.48 62.51 C 140.77 68.03 140.51 73.58 140.60 79.11 C 149.81 73.98 161.14 72.33 171.19 75.88 C 182.38 79.42 190.34 88.84 196.78 98.17 C 199.51 103.57 204.14 108.53 204.47 114.78 C 204.90 114.85 205.78 114.99 206.21 115.06 C 205.57 115.09 204.28 115.14 203.63 115.17 C 203.67 114.77 203.74 113.96 203.78 113.55 C 198.70 113.30 193.60 113.12 188.52 113.55 C 183.68 104.60 177.88 95.14 168.25 90.76 C 162.30 87.72 155.15 88.55 149.26 91.33 C 155.38 101.23 158.63 112.60 160.21 124.05 C 160.00 124.67 159.57 125.92 159.36 126.54 C 158.82 126.56 157.75 126.59 157.22 126.60 C 157.54 127.34 158.19 128.80 158.52 129.54 L 156.63 127.16 L 156.31 130.45 L 154.12 128.20 L 156.12 131.92 L 154.19 130.07 C 154.30 130.68 154.52 131.91 154.63 132.52 L 153.07 132.28 L 153.94 133.79 L 152.41 133.24 C 152.42 134.08 152.44 135.77 152.45 136.61 L 150.23 134.33 L 152.33 138.10 L 150.61 136.18 C 150.39 137.04 149.95 138.75 149.72 139.61 C 148.69 135.54 148.67 131.33 148.23 127.17 C 146.46 117.47 144.51 107.43 138.85 99.13 C 135.86 94.13 131.29 89.75 125.55 88.21 C 118.65 86.29 110.98 88.99 106.23 94.20 C 101.33 99.12 98.63 105.70 96.37 112.14 C 90.48 132.15 90.87 153.96 97.13 173.83 C 100.52 183.42 106.38 194.05 117.16 196.41 C 127.28 198.70 136.76 191.26 140.74 182.42 L 141.04 187.78 C 141.17 184.55 141.65 181.41 142.20 178.25 C 142.16 182.39 142.56 186.52 142.65 190.66 C 143.12 190.25 144.05 189.42 144.52 189.01 C 144.03 189.71 143.07 191.11 142.59 191.82 L 144.33 191.09 C 144.40 192.02 144.54 193.87 144.61 194.80 L 146.42 194.51 C 145.90 195.05 144.87 196.13 144.36 196.67 L 146.34 196.20 C 146.41 197.11 146.56 198.94 146.64 199.85 L 147.67 199.16 C 147.62 199.79 147.54 201.06 147.49 201.70 L 149.96 201.13 L 146.90 202.83 L 149.40 202.23 C 149.48 203.06 149.64 204.70 149.71 205.53 C 150.50 205.39 152.07 205.11 152.85 204.97 L 150.03 206.30 L 152.70 206.53 C 152.63 206.94 152.48 207.78 152.41 208.19 C 154.45 208.46 156.26 209.42 157.85 210.69 C 157.13 210.33 156.43 209.95 155.72 209.56 C 150.06 210.25 145.02 207.33 139.98 205.29 C 129.88 210.95 117.14 212.38 106.45 207.52 C 104.14 206.61 101.63 204.35 99.19 206.20 C 92.70 209.51 85.29 211.13 78.02 210.13 C 66.49 209.45 56.68 202.01 49.80 193.18 C 32.77 173.05 27.05 144.36 34.63 119.15 C 31.04 116.95 27.67 120.36 23.97 120.00 C 17.14 120.07 12.09 114.57 8.95 109.09 C 1.73 96.85 4.69 79.68 15.96 70.91 C 20.46 67.47 26.82 67.62 31.63 70.33 C 32.72 69.83 33.82 69.33 34.91 68.83 C 36.24 65.85 37.00 62.54 38.98 59.89 C 41.61 59.88 43.96 61.55 46.09 62.96 C 46.57 65.31 46.32 67.73 46.34 70.12 C 49.97 68.44 54.20 67.58 58.05 69.04 C 62.14 70.21 64.61 73.88 67.26 76.92 C 78.25 72.18 91.29 73.29 101.50 79.48 C 104.30 77.76 107.30 76.40 110.42 75.36 C 113.00 68.97 115.54 62.56 118.11 56.15 M 21.37 74.44 C 15.93 76.86 13.11 82.64 11.55 88.07 C 9.18 95.76 11.81 104.18 16.61 110.36 C 19.24 113.74 23.97 115.36 28.00 113.60 C 21.72 101.75 21.74 86.60 28.06 74.77 C 25.90 74.18 23.54 73.43 21.37 74.44 M 31.85 77.80 C 28.30 84.24 27.58 91.86 28.34 99.07 C 29.11 104.88 31.04 111.15 36.14 114.61 C 38.75 107.81 42.41 101.49 46.50 95.49 C 47.57 93.76 49.76 92.35 49.40 90.07 C 48.71 84.47 47.38 77.98 42.46 74.52 C 38.77 72.12 33.85 74.18 31.85 77.80 M 49.65 74.71 C 51.80 78.47 53.08 82.62 53.80 86.87 C 56.52 84.21 59.17 81.42 62.46 79.46 C 60.68 77.61 59.01 75.46 56.52 74.52 C 54.30 73.65 51.88 74.16 49.65 74.71 M 67.40 94.34 C 56.43 103.85 50.08 117.78 47.29 131.83 C 44.93 142.98 47.03 154.55 50.79 165.15 C 55.21 176.49 61.91 188.11 73.22 193.69 C 79.24 196.76 86.29 195.90 92.19 193.01 C 83.22 178.37 80.25 160.91 79.94 143.97 C 79.67 125.86 82.70 107.03 92.24 91.35 C 84.27 87.17 74.17 88.46 67.40 94.34 Z" />
<path fill="#ffffff" opacity="1.00" d=" M 190.62 118.76 C 204.17 116.54 218.70 120.01 229.54 128.53 C 239.70 136.41 246.77 148.35 248.25 161.17 C 251.39 181.17 240.71 202.41 222.79 211.85 C 212.25 217.51 199.59 219.45 187.92 216.62 C 171.67 213.10 157.63 200.79 152.14 185.08 C 149.61 177.69 148.17 169.69 149.77 161.93 C 151.46 140.42 169.54 122.11 190.62 118.76 M 191.53 143.46 C 189.70 148.53 191.15 154.36 190.71 159.72 C 185.34 160.09 179.60 158.74 174.47 160.43 C 173.56 165.16 174.15 170.09 174.17 174.89 C 174.41 175.16 174.87 175.70 175.10 175.97 C 180.23 176.72 185.51 176.11 190.70 176.32 C 190.90 181.51 190.24 186.78 191.05 191.92 C 191.30 192.13 191.81 192.56 192.06 192.78 C 196.94 192.99 201.89 193.22 206.75 192.62 C 207.77 187.26 207.07 181.76 207.26 176.35 C 212.63 175.86 218.34 177.24 223.49 175.55 C 224.41 171.09 223.84 166.43 223.84 161.90 C 224.04 160.29 222.39 159.64 221.05 159.69 C 216.45 159.61 211.85 159.74 207.25 159.72 C 207.25 155.13 207.34 150.53 207.24 145.94 C 207.27 144.59 206.70 142.89 205.04 143.09 C 200.57 143.12 195.89 142.48 191.53 143.46 Z" />
</g>
</svg>
