<?xml version="1.0" encoding="UTF-8" standalone="no"?>
<!DOCTYPE svg PUBLIC "-//W3C//DTD SVG 1.1//EN" "http://www.w3.org/Graphics/SVG/1.1/DTD/svg11.dtd">
<svg width="100%" height="100%" viewBox="0 0 250 250" version="1.1" xmlns="http://www.w3.org/2000/svg" xmlns:xlink="http://www.w3.org/1999/xlink" xml:space="preserve" xmlns:serif="http://www.serif.com/" style="fill-rule:evenodd;clip-rule:evenodd;stroke-linejoin:round;stroke-miterlimit:2;">
    <g id="_-ffffffff" serif:id="#ffffffff">
        <g transform="matrix(0.247586,0,0,0.247586,8.73278,35.678)">
            <path d="M124.22,73.83C132.25,68.07 142.25,66.23 151.95,66.23C326.31,66.21 500.68,66.22 675.04,66.23C686.36,65.89 698.07,69.24 706.46,77.08C712.87,82.99 716.96,90.78 721.46,98.11C726.83,107.34 733.43,115.81 738.47,125.24C759.07,157.27 779.15,189.65 799.54,221.82C808.84,237.22 815.52,254.51 816.68,272.59C817.94,280.83 817.8,289.22 816.71,297.47C816.01,312.71 810.82,327.35 804.14,340.93C796.84,355.38 786.13,367.87 773.76,378.22C758.72,390.37 740.02,397.34 720.98,399.97C715.32,400.27 709.68,401.01 704,401.02C687.55,400.38 670.88,398.25 655.63,391.74C636.97,384.51 620.71,372.14 607.04,357.7C602.13,362.44 597.51,367.5 592.15,371.75C576.85,384.67 558.13,392.98 538.85,397.93C525.91,399.93 512.76,401.87 499.65,400.45C490.28,399.32 480.8,398.37 471.81,395.32C453.57,389.07 436.24,379.61 422,366.51C419.03,363.9 416.69,360.41 413.02,358.71C409.82,361.08 407.27,364.17 404.4,366.91C389.61,380.32 371.72,390.22 352.53,395.76C341.34,399.47 329.47,400.25 317.78,401.01C291.99,400.82 265.96,393.7 244.56,379.08C236.39,374.15 229.08,367.88 222.57,360.93C221.73,360.09 220.86,359.27 219.87,358.63C218.01,359.11 216.83,360.76 215.48,362C205.19,373.11 192.38,381.65 178.76,388.14C153.1,401.01 123.07,403.75 95.11,398.16C84.65,395.39 74.47,391.47 64.92,386.38C58.75,382.8 53.22,378.25 47.72,373.74C40.36,367.71 34.64,359.98 29.38,352.13C24.8,344.59 20.14,337 17.14,328.66C8.58,305.48 7.26,279.74 12.94,255.72C17.88,236.17 28.88,218.93 39.83,202.26C63.04,164.84 87.09,127.95 110,90.35C113.59,83.97 118.45,78.34 124.22,73.83M77.53,437.67C83.58,437.83 89.24,440.15 95.18,441.02C101.74,441.93 108.32,443.08 114.98,442.98C123.96,442.87 133,443.43 141.92,442.02C148.49,441.42 154.81,439.3 161.39,438.73C161.83,469.99 161.31,501.26 161.55,532.53C161.55,544.71 161.63,556.89 161.45,569.08C271.3,569.01 381.15,569.06 491,569.05C527.47,569.1 563.94,568.93 600.41,569.15C599.84,584.63 604.14,599.71 608.3,614.48C611.04,623.8 615.56,632.4 619.49,641.23C625.05,650.97 631.36,660.3 638.48,668.97C640.84,671.59 643.35,674.08 645.46,676.91C649.52,682.25 655.44,685.66 659.96,690.56C669.56,698.61 680.08,705.55 691.09,711.52C697.84,714.59 704.7,717.43 711.56,720.25C718.73,723.43 726.76,723.87 733.99,726.95C728.97,729.82 724.08,733.18 718.42,734.64C711.39,736.21 704.15,736.05 697,736.03C504.98,736.03 312.97,736.07 120.95,736.01C108.21,736.63 95.79,730.55 87.47,721.08C81.77,714.16 78.3,705.46 77.59,696.53C77.53,610.25 77.65,523.96 77.53,437.67" style="fill:white;fill-rule:nonzero;"/>
        </g>
        <g transform="matrix(0.247586,0,0,0.247586,8.73278,116.371)">
            <path d="M755.47,90.5C760.94,89.72 766.49,90.18 772,90.08C778.05,90.25 784.19,89.54 790.15,90.92C813.91,94.16 837.42,102.32 856.69,116.87C887.29,138.33 909.6,171.54 917.01,208.26C919.43,223.55 921.36,239.22 918.98,254.66C917.61,271.78 912.49,288.53 904.81,303.86C900.99,312.93 895.04,320.84 889.21,328.69C874.36,348.95 853.54,364.14 830.97,374.78C822.43,378.47 813.45,380.96 804.52,383.46C793.55,385.94 782.3,386.58 771.12,387.06C765.1,386.01 758.96,386.72 752.94,385.83C746.91,384.25 740.52,384.6 734.65,382.38C720.6,378.84 706.81,373.67 694.6,365.8C684.14,360.09 675.28,352.03 666.54,344.07C650.7,328.69 639.11,309.34 631.71,288.61C626.8,275.15 623.77,260.92 623.46,246.57C623.28,242.98 622,239.43 622.8,235.82C623.58,232.11 623.55,228.32 623.58,224.55C625.47,202.47 632.92,181.07 644.14,162.01C651.13,148.57 661.65,137.48 672.56,127.15C690.5,111.14 712.5,99.82 735.77,93.9C742.27,92.41 748.94,91.85 755.47,90.5M746.62,170.53C746.54,184.76 746.67,198.98 746.59,213.21C733.04,213.48 719.48,213.25 705.93,213.31C703.45,213.41 700.71,213.66 698.79,215.39C696.91,217.64 696.55,220.71 696.61,223.54C696.67,234.26 696.63,244.97 696.61,255.69C696.33,259.23 698.99,263.54 702.91,263.16C717.45,263.23 731.99,263.12 746.52,263.19C746.72,277.69 746.53,292.19 746.61,306.69C746.58,309.93 749.51,313.51 752.96,313.15C764.33,313.21 775.7,313.06 787.06,313.22C789.21,313.13 791.64,313.5 793.47,312.07C795.86,310.48 796.6,307.38 796.53,304.66C796.48,290.84 796.34,277.01 796.57,263.18C811.4,263.16 826.23,263.25 841.05,263.14C843.44,263.38 845.51,260.87 845.5,258.61C845.78,249.28 845.56,239.94 845.64,230.6C845.32,225.88 846.48,220.81 844.62,216.34C843.69,213.54 840.45,213.66 838.05,213.39C825.7,213.24 813.34,213.35 800.99,213.36C799.56,213.15 797.77,213.67 796.66,212.55C796.13,203.58 796.63,194.58 796.46,185.6C796.26,178.88 797.21,172.01 795.28,165.46C792.29,164.39 789.29,163 786.04,163.18C776.01,163.23 765.97,163.17 755.94,163.21C751.71,163.05 746.43,165.69 746.62,170.53" style="fill:white;fill-rule:nonzero;"/>
        </g>
    </g>
</svg>
